<svg version="1.2" xmlns="http://www.w3.org/2000/svg" viewBox="0 0 751 500" width="751" height="500">
	<title>2629253-ai</title>
	<defs>
		<clipPath clipPathUnits="userSpaceOnUse" id="cp1">
			<path d="m750.81 500h-750v-500h750z"/>
		</clipPath>
		<radialGradient id="g1" cx="0" cy="0" r="1" gradientUnits="userSpaceOnUse" gradientTransform="matrix(84.842,0,0,84.842,282.76,214.178)">
			<stop offset="0" stop-color="#68e1f3" stop-opacity="1"/>
			<stop offset="1" stop-color="#68e1f3" stop-opacity="0"/>
		</radialGradient>
		<radialGradient id="g2" cx="0" cy="0" r="1" gradientUnits="userSpaceOnUse" gradientTransform="matrix(68.096,0,0,68.096,604.275,421.346)">
			<stop offset="0" stop-color="#68e1f3" stop-opacity="1"/>
			<stop offset="1" stop-color="#68e1f3" stop-opacity="0"/>
		</radialGradient>
		<clipPath clipPathUnits="userSpaceOnUse" id="cp2">
			<path d="m-69 500h-500v-500h500z"/>
		</clipPath>
		<radialGradient id="g3" cx="0" cy="0" r="1" gradientUnits="userSpaceOnUse" gradientTransform="matrix(423.738,0,0,423.738,-319,250)">
			<stop offset="0" stop-color="#01172d"/>
			<stop offset="1" stop-color="#010103"/>
		</radialGradient>
		<clipPath clipPathUnits="userSpaceOnUse" id="cp3">
			<path d="m56 500h-750v-500h750z"/>
		</clipPath>
		<radialGradient id="g4" cx="0" cy="0" r="1" gradientUnits="userSpaceOnUse" gradientTransform="matrix(84.842,0,0,84.842,-412.045,214.178)">
			<stop offset="0" stop-color="#68e1f3" stop-opacity="1"/>
			<stop offset="1" stop-color="#68e1f3" stop-opacity="0"/>
		</radialGradient>
		<radialGradient id="g5" cx="0" cy="0" r="1" gradientUnits="userSpaceOnUse" gradientTransform="matrix(68.096,0,0,68.096,-90.53,421.346)">
			<stop offset="0" stop-color="#68e1f3" stop-opacity="1"/>
			<stop offset="1" stop-color="#68e1f3" stop-opacity="0"/>
		</radialGradient>
	</defs>
	<style>
		.s0 { fill: #ffffff } 
		.s1 { opacity: .4;fill: #68e1f3 } 
		.s2 { opacity: .8;fill: none;stroke: #68e1f3;stroke-miterlimit:10;stroke-width: 3;stroke-dasharray: 4,3 } 
		.s3 { opacity: .4;fill: none;stroke: #68e1f3;stroke-miterlimit:10;stroke-width: 5;stroke-dasharray: 9,3.0000000000000004 } 
		.s4 { opacity: .4;fill: none;stroke: #68e1f3;stroke-miterlimit:10;stroke-width: 3 } 
		.s5 { opacity: .4;fill: none;stroke: #68e1f3;stroke-miterlimit:10;stroke-width: 9 } 
		.s6 { opacity: .4;fill: none;stroke: #68e1f3;stroke-miterlimit:10;stroke-width: 2 } 
		.s7 { fill: #68e1f3 } 
		.s8 { fill: url(#g1) } 
		.s9 { opacity: .8;fill: none;stroke: #68e1f3;stroke-miterlimit:10;stroke-width: 3 } 
		.s10 { fill: none;stroke: #68e1f3;stroke-miterlimit:10;stroke-width: 2 } 
		.s11 { opacity: .4;fill: none;stroke: #68e1f3;stroke-miterlimit:10;stroke-width: 5.7 } 
		.s12 { opacity: .4;fill: none;stroke: #68e1f3;stroke-miterlimit:10;stroke-width: 1.3 } 
		.s13 { fill: url(#g2) } 
		.s14 { opacity: .8;fill: none;stroke: #68e1f3;stroke-miterlimit:10;stroke-width: 1.9 } 
		.s15 { opacity: .4;fill: none;stroke: #68e1f3;stroke-miterlimit:10;stroke-dasharray: 3,3 } 
		.s16 { opacity: .4;fill: none;stroke: #68e1f3;stroke-miterlimit:10;stroke-width: .5;stroke-dasharray: 1.5,1.5 } 
		.s17 { opacity: .2;fill: none;stroke: #68e1f3;stroke-miterlimit:10;stroke-width: .7;stroke-dasharray: 2.04697,2.04697 } 
		.s18 { opacity: .2;fill: none;stroke: #68e1f3;stroke-miterlimit:10;stroke-width: .9;stroke-dasharray: 2.75565,2.75565 } 
		.s19 { fill: none;stroke: #68e1f3;stroke-miterlimit:10;stroke-dasharray: 3,3 } 
		.s20 { opacity: .7;fill: #68e1f3 } 
		.s21 { fill: url(#g3) } 
		.s22 { fill: url(#g4) } 
		.s23 { fill: url(#g5) } 
	</style>
	<g id="_Artboards_">
		<path id="Artboard 1" class="s0" d="m-569 500h500v-500h-500z"/>
	</g>
	<g id="BACKGROUND 2">
		<g id="&lt;Group&gt;">
			<g id="&lt;Clip Group&gt;" clip-path="url(#cp1)">
				<g id="&lt;Group&gt;">
					<g id="&lt;Group&gt;">
						<path id="&lt;Path&gt;" class="s1" d="m560.4 122c0 11-8.9 19.9-19.9 19.9-11 0-19.9-8.9-19.9-19.9 0-11 8.9-19.9 19.9-19.9 11 0 19.9 8.9 19.9 19.9z"/>
						<path id="&lt;Path&gt;" class="s1" d="m552.2 122c0 6.4-5.2 11.7-11.7 11.7-6.4 0-11.6-5.3-11.6-11.7 0-6.4 5.2-11.7 11.6-11.7 6.5 0 11.7 5.3 11.7 11.7z"/>
						<path id="&lt;Path&gt;" class="s2" d="m565 122c0 13.5-11 24.4-24.5 24.4-13.5 0-24.4-10.9-24.4-24.4 0-13.5 10.9-24.4 24.4-24.4 13.5 0 24.5 10.9 24.5 24.4z"/>
					</g>
					<g id="&lt;Group&gt;">
						<path id="&lt;Path&gt;" class="s1" d="m122 453.9c0 32.2-26.1 58.4-58.4 58.4-32.2 0-58.4-26.2-58.4-58.4 0-32.3 26.2-58.4 58.4-58.4 32.3 0 58.4 26.1 58.4 58.4z"/>
						<path id="&lt;Path&gt;" class="s1" d="m108.3 453.9c0 24.7-20 44.7-44.7 44.7-24.7 0-44.7-20-44.7-44.7 0-24.7 20-44.8 44.7-44.8 24.7 0 44.7 20.1 44.7 44.8z"/>
						<path id="&lt;Path&gt;" class="s3" d="m135.4 453.9c0 39.6-32.1 71.8-71.8 71.8-39.7 0-71.8-32.2-71.8-71.8 0-39.7 32.1-71.8 71.8-71.8 39.7 0 71.8 32.1 71.8 71.8z"/>
						<path id="&lt;Path&gt;" class="s4" d="m88.8 453.9c0 13.9-11.3 25.2-25.2 25.2-13.9 0-25.2-11.3-25.2-25.2 0-13.9 11.3-25.2 25.2-25.2 13.9 0 25.2 11.3 25.2 25.2z"/>
					</g>
					<g id="&lt;Group&gt;">
						<path id="&lt;Path&gt;" class="s5" d="m425.3 113.3c55.7 78.8 37 187.8-41.7 243.4-78.7 55.7-187.7 37.1-243.4-41.7-55.7-78.7-37-187.7 41.7-243.4 78.8-55.7 187.7-37 243.4 41.7z"/>
						<path id="&lt;Path&gt;" class="s6" d="m408.2 125.5c48.9 69.2 32.5 165.1-36.8 214.1-69.2 49-165.1 32.5-214-36.7-49-69.3-32.6-165.1 36.7-214.1 69.2-49 165.1-32.6 214.1 36.7z"/>
						<g id="&lt;Group&gt;">
							<path id="&lt;Path&gt;" class="s1" d="m190.6 83.9c71.8-50.9 171.7-33.8 222.5 38.1 10.4 14.8 18 30.7 22.8 47.1l28.8-8.4c-5.7-19.6-14.7-38.5-27.1-56-60.4-85.4-179-105.7-264.3-45.3-30.9 21.8-53.2 51.2-66.3 83.8l27.8 11.3c11-27.5 29.8-52.3 55.8-70.6z"/>
							<path id="&lt;Path&gt;" class="s1" d="m441.7 227.8c-2.1 24.4-9.8 48.3-22.7 69.5l25.5 15.8c15.4-25.3 24.6-53.7 27.1-82.7z"/>
							<path id="&lt;Path&gt;" class="s1" d="m269.9 403.3l2-29.9c-46.2-3.2-90.7-26.4-119.5-67-9.3-13.2-16.3-27.3-21.1-41.8l-28.5 9.5c5.8 17.2 14.1 34 25.1 49.6 34.2 48.3 87.1 75.8 142 79.6z"/>
						</g>
						<g id="&lt;Group&gt;" style="opacity: .7">
							<path id="&lt;Compound Path&gt;" class="s7" d="m365 330.5l-0.8 0.5-6.8-9.8 0.7-0.5c3.9-2.8 7.7-5.8 11.3-8.9l7.9 9c-3.9 3.4-8 6.7-12.3 9.7zm-4.2 2.9c-4.6 3-9.5 5.8-14.4 8.3l-5.4-10.8c4.5-2.2 9-4.8 13.2-7.6zm33.7-30.7l-9.4-7.4c3.1-4 6.1-8.2 8.7-12.5l10.2 6.3c-2.9 4.7-6.1 9.3-9.5 13.6zm-71.3 48.2c-5.3 1.6-10.8 2.8-16.2 3.8l-2.1-11.8c5-0.9 10-2.1 14.9-3.5zm83-65.4l-10.4-6c2.5-4.4 4.8-8.9 6.8-13.6l11 4.7c-2.2 5.1-4.7 10.1-7.4 14.9zm9-18.7l-11.1-4.4c1.8-4.7 3.4-9.6 4.7-14.5l11.6 3.1c-1.4 5.3-3.2 10.7-5.2 15.8zm-133.1 89.9c-5.5 0-11.1-0.4-16.6-1l1.4-12c5.1 0.7 10.2 1 15.3 1zm139.3-109.7l-11.7-2.8c1.2-4.9 2.1-10 2.7-15l11.9 1.4c-0.7 5.5-1.6 11-2.9 16.4zm-160.1 108.1c-5.4-0.8-10.9-2-16.2-3.5l3.1-11.5c4.9 1.3 9.9 2.4 14.9 3.1zm155.2-190.1l-11.3 4.2c-1.7-4.8-3.8-9.4-6.1-14l10.7-5.4c2.5 4.9 4.8 10.1 6.7 15.2zm-229.3 155c-4.1-3.7-8-7.7-11.7-11.9l9.1-7.9c3.3 3.8 6.9 7.5 10.7 10.9zm220.6-173.9l-10.5 5.8c-2.4-4.5-5.1-8.8-8.1-13l-0.1-0.2 9.8-6.9 0.1 0.2c3.2 4.5 6.2 9.3 8.8 14.1zm-235 158.8c-2.2-2.7-4.4-5.5-6.4-8.4q-1.8-2.4-3.4-5l10.1-6.5q1.5 2.3 3.1 4.6c1.8 2.6 3.8 5.2 5.9 7.7zm214-169.3c-3.1-4-6.4-8-9.9-11.6l8.7-8.3c3.8 4 7.4 8.3 10.8 12.7zm-215.8 146.1l-10.3 6.2c-2.8-4.7-5.5-9.7-7.8-14.7l11-5c2.1 4.6 4.5 9.2 7.1 13.5zm203.2-160.4c-3.6-3.6-7.4-7-11.4-10.1l7.3-9.5c4.4 3.4 8.6 7.1 12.6 11zm-14.5-12.3c-4.1-3-8.4-5.8-12.8-8.3l5.9-10.4c4.8 2.7 9.5 5.7 13.9 9zm-203.4 137.8l-11.7 3c-1.3-5.4-2.4-10.9-3.1-16.4l11.9-1.6c0.6 5 1.6 10.1 2.9 15zm3.1-75.2l-11.4-3.9c1.8-5.2 3.9-10.4 6.3-15.3l10.9 5.2c-2.2 4.5-4.2 9.3-5.8 14zm17.4-33.7l-9.7-7c3.2-4.5 6.8-8.8 10.5-12.9l8.9 8.1c-3.5 3.8-6.7 7.7-9.7 11.8zm56.2-44.3c-4.7 2-9.3 4.2-13.7 6.7l-5.9-10.5c4.8-2.7 9.9-5.1 15-7.3zm-43.9 29.8l-8.6-8.4c3.9-4 8-7.7 12.3-11.2l7.6 9.3c-4 3.2-7.8 6.7-11.3 10.3zm26.9-21.2c-3 1.7-5.9 3.6-8.6 5.6q-0.1 0-0.1 0-2 1.4-4 2.9l-7.2-9.5q2.1-1.6 4.3-3.2 0 0 0 0c3.1-2.2 6.2-4.2 9.4-6.1z"/>
							<g id="&lt;Group&gt;">
								<path id="&lt;Compound Path&gt;" fill-rule="evenodd" class="s7" d="m391.8 305.9c-3.5 4.2-7.4 8.3-11.4 12.1l-8.2-8.8c3.7-3.5 7.2-7.2 10.5-11.1zm-18.3 3.4l6.9 7.3c3.5-3.3 6.8-6.9 10-10.5l-7.7-6.5c-2.9 3.4-6 6.7-9.2 9.7z"/>
							</g>
							<g id="&lt;Group&gt;">
								<path id="&lt;Compound Path&gt;" fill-rule="evenodd" class="s7" d="m342.6 343.5c-5 2.3-10.2 4.4-15.4 6.1l-3.8-11.4c4.8-1.6 9.6-3.5 14.2-5.6zm-18-4.7l3.1 9.5c4.6-1.5 9.1-3.3 13.5-5.3l-4.2-9.1c-4 1.9-8.2 3.5-12.4 4.9z"/>
							</g>
							<g id="&lt;Group&gt;">
								<path id="&lt;Compound Path&gt;" fill-rule="evenodd" class="s7" d="m302.8 355.3c-5.5 0.7-11 1.2-16.6 1.3l-0.3-12c5.1-0.1 10.2-0.5 15.2-1.2zm-15.8-9.7l0.2 10c4.9-0.1 9.7-0.5 14.5-1.2l-1.4-9.9c-4.4 0.6-8.9 1-13.3 1.1z"/>
							</g>
							<g id="&lt;Group&gt;">
								<path id="&lt;Compound Path&gt;" fill-rule="evenodd" class="s7" d="m424.7 226.4l-11.9-1.1c0.4-5 0.5-10.1 0.4-15.2l12-0.4c0.1 5.6 0 11.2-0.5 16.7zm-10.5-15.3c0.1 4.4 0 8.9-0.4 13.3l10 0.9c0.4-4.8 0.5-9.7 0.4-14.5z"/>
							</g>
							<g id="&lt;Group&gt;">
								<path id="&lt;Compound Path&gt;" fill-rule="evenodd" class="s7" d="m244.6 338.9l-3.5 11.5c-5.3-1.6-10.6-3.5-15.6-5.8l4.8-11c4.6 2.1 9.4 3.9 14.3 5.3zm-17.8 5.2c4.4 1.9 9 3.6 13.6 5.1l2.9-9.6c-4.2-1.3-8.4-2.9-12.5-4.6z"/>
							</g>
							<g id="&lt;Group&gt;">
								<path id="&lt;Compound Path&gt;" fill-rule="evenodd" class="s7" d="m425 205.6l-12 0.7c-0.3-5.1-0.9-10.2-1.8-15.1l11.8-2.2c1 5.5 1.7 11.1 2 16.6zm-12.6-13.6c0.7 4.3 1.2 8.8 1.5 13.2l10-0.6c-0.3-4.8-0.9-9.6-1.7-14.4z"/>
							</g>
							<g id="&lt;Group&gt;">
								<path id="&lt;Compound Path&gt;" fill-rule="evenodd" class="s7" d="m226.8 332.1l-5.1 10.8c-5-2.3-9.9-5-14.6-8l6.4-10.1c4.2 2.6 8.7 5.1 13.3 7.3zm-18.3 2.5c4.1 2.5 8.4 4.9 12.7 7l4.3-9.1c-4-1.9-7.9-4-11.7-6.4z"/>
							</g>
							<g id="&lt;Group&gt;">
								<path id="&lt;Compound Path&gt;" fill-rule="evenodd" class="s7" d="m422.2 185l-11.7 2.4c-1.1-5-2.4-9.9-4-14.7l11.4-3.8c1.7 5.2 3.2 10.6 4.3 16.1zm-14.4-11.7c1.3 4.2 2.5 8.6 3.5 12.9l9.7-2c-1-4.8-2.3-9.5-3.8-14.1z"/>
							</g>
							<g id="&lt;Group&gt;">
								<path id="&lt;Compound Path&gt;" fill-rule="evenodd" class="s7" d="m210.3 322.7l-6.7 10c-4.6-3.1-9.1-6.5-13.3-10.1l7.8-9.1c3.9 3.3 8 6.4 12.2 9.2zm-18.6-0.2c3.7 3.1 7.6 6.1 11.6 8.8l5.6-8.3c-3.7-2.5-7.3-5.2-10.7-8.1z"/>
							</g>
							<g id="&lt;Group&gt;">
								<path id="&lt;Compound Path&gt;" fill-rule="evenodd" class="s7" d="m162.4 264.7l-11 4.7c-2.2-5.1-4-10.4-5.6-15.7l11.6-3.4c1.4 4.9 3.1 9.7 5 14.4zm-15.3-10.4c1.3 4.7 3 9.3 4.8 13.8l9.2-3.9c-1.7-4.1-3.2-8.4-4.4-12.6z"/>
							</g>
							<g id="&lt;Group&gt;">
								<path id="&lt;Compound Path&gt;" fill-rule="evenodd" class="s7" d="m349.3 88.2l-5.6 10.6c-4.5-2.4-9.1-4.5-13.9-6.3l4.3-11.2c5.2 2 10.3 4.3 15.2 6.9zm-18.2 3.7c4.2 1.6 8.2 3.5 12.2 5.5l4.6-8.8c-4.2-2.2-8.7-4.2-13.2-6z"/>
							</g>
							<g id="&lt;Group&gt;">
								<path id="&lt;Compound Path&gt;" fill-rule="evenodd" class="s7" d="m152.3 212.7c-0.1 5 0.2 10.2 0.7 15.2l-11.9 1.2c-0.6-5.5-0.9-11-0.8-16.6zm-10.3 15.4l9.9-1c-0.4-4.5-0.6-8.9-0.6-13.4l-10-0.1c0 4.8 0.2 9.7 0.7 14.5z"/>
							</g>
							<g id="&lt;Group&gt;">
								<path id="&lt;Compound Path&gt;" fill-rule="evenodd" class="s7" d="m330.3 79.8l-4 11.4c-4.8-1.7-9.7-3.1-14.7-4.3l2.7-11.7c5.4 1.3 10.7 2.8 16 4.6zm-17.5 6.4c4.3 1 8.6 2.2 12.8 3.7l3.4-9.4c-4.6-1.6-9.3-3-14-4.1z"/>
							</g>
							<g id="&lt;Group&gt;">
								<path id="&lt;Compound Path&gt;" fill-rule="evenodd" class="s7" d="m153.9 193.7c-0.8 5-1.3 10.1-1.5 15.2l-12-0.5c0.2-5.6 0.8-11.1 1.7-16.6zm-12.5 13.7l10 0.4c0.2-4.4 0.7-8.9 1.3-13.3l-9.9-1.5c-0.7 4.7-1.2 9.6-1.4 14.4z"/>
							</g>
							<g id="&lt;Group&gt;">
								<path id="&lt;Compound Path&gt;" fill-rule="evenodd" class="s7" d="m310.2 74.4l-2.3 11.8c-5-1-10.1-1.7-15.1-2.1l0.9-12c5.5 0.5 11.1 1.2 16.5 2.3zm-16.3 8.8c4.4 0.4 8.8 1 13.2 1.8l1.9-9.8c-4.7-0.9-9.6-1.6-14.4-2z"/>
							</g>
							<g id="&lt;Group&gt;">
								<path id="&lt;Compound Path&gt;" fill-rule="evenodd" class="s7" d="m158.3 175.1c-1.6 4.9-2.8 9.9-3.7 14.8l-11.8-2.2c1-5.4 2.4-10.9 4-16.1zm-14.3 11.7l9.8 1.9c0.9-4.4 2-8.7 3.3-13l-9.6-3c-1.4 4.7-2.6 9.4-3.5 14.1z"/>
							</g>
							<g id="&lt;Group&gt;">
								<path id="&lt;Compound Path&gt;" fill-rule="evenodd" class="s7" d="m289.6 71.9l-0.6 12q-3.2-0.2-6.3-0.2-4.5 0-9 0.3l-0.8-12q4.9-0.3 9.8-0.3 3.4 0 6.9 0.2zm-15.6 1.1l0.7 9.9q3.9-0.2 8-0.2 2.6 0 5.3 0.1l0.5-10q-2.9-0.1-5.8-0.1c-2.9 0-5.9 0.1-8.7 0.3z"/>
							</g>
							<g id="&lt;Group&gt;">
								<path id="&lt;Compound Path&gt;" fill-rule="evenodd" class="s7" d="m269.9 84.3c-5 0.5-10.1 1.3-15 2.4l-2.6-11.7c5.4-1.2 10.9-2.1 16.5-2.6zm-16.5-8.6l2.2 9.8c4.3-1 8.7-1.7 13.2-2.1l-1-10c-4.8 0.5-9.6 1.3-14.4 2.3z"/>
							</g>
							<g id="&lt;Group&gt;">
								<path id="&lt;Compound Path&gt;" fill-rule="evenodd" class="s7" d="m174.7 140.9c-2.8 4.2-5.4 8.6-7.8 13.1l-10.6-5.5c2.5-4.9 5.4-9.7 8.5-14.3zm-17.1 7.2l8.9 4.6c2.1-4 4.4-7.8 6.8-11.5l-8.3-5.6c-2.6 4-5.1 8.2-7.4 12.5z"/>
							</g>
							<g id="&lt;Group&gt;">
								<path id="&lt;Compound Path&gt;" fill-rule="evenodd" class="s7" d="m251.1 87.6c-4.9 1.2-9.8 2.7-14.5 4.5l-4.3-11.2c5.2-2 10.6-3.6 15.9-5zm-17.5-6.1l3.6 9.4c4.1-1.6 8.4-2.9 12.7-4l-2.4-9.7c-4.7 1.2-9.3 2.6-13.9 4.3z"/>
							</g>
						</g>
						<g id="&lt;Group&gt;">
							<path id="&lt;Compound Path&gt;" fill-rule="evenodd" class="s8" d="m331.8 283.5c-38.2 27-91.3 17.9-118.3-20.3-27.1-38.2-18-91.3 20.2-118.3 38.3-27 91.3-17.9 118.4 20.3 27 38.2 17.9 91.2-20.3 118.3zm-63.4-89.6c-11.2 7.9-13.9 23.4-5.9 34.6 7.9 11.2 23.4 13.9 34.6 6 11.2-7.9 13.9-23.5 6-34.7-8-11.2-23.5-13.8-34.7-5.9z"/>
						</g>
						<path id="&lt;Path&gt;" class="s9" d="m313.6 192.4c12 17 8 40.6-9 52.6-17.1 12-40.6 8-52.7-9-12-17-8-40.6 9.1-52.6 17-12.1 40.5-8 52.6 9z"/>
					</g>
					<g id="&lt;Group&gt;" style="opacity: .4">
						<g id="&lt;Group&gt;">
							<path id="&lt;Path&gt;" class="s10" d="m150.5 500l51.1-51.1h232.9"/>
							<g id="&lt;Group&gt;">
								<path id="&lt;Path&gt;" class="s7" d="m437.6 452.2v-6.6h-6.6v6.6z"/>
							</g>
						</g>
					</g>
					<g id="&lt;Group&gt;">
						<path id="&lt;Path&gt;" class="s11" d="m594.4 311.3c60.7-5.5 114.4 39.4 119.9 100.1 5.5 60.8-39.3 114.5-100.1 120-60.8 5.5-114.5-39.4-119.9-100.1-5.5-60.8 39.3-114.5 100.1-120z"/>
						<path id="&lt;Path&gt;" class="s12" d="m595.6 324.6c53.4-4.8 100.6 34.6 105.4 88 4.9 53.5-34.6 100.7-88 105.5-53.4 4.8-100.7-34.6-105.5-88-4.8-53.5 34.6-100.7 88.1-105.5z"/>
						<g id="&lt;Group&gt;">
							<path id="&lt;Path&gt;" class="s1" d="m503.7 430.4c-5-55.4 36.1-104.6 91.5-109.6 11.4-1.1 22.5-0.1 33.1 2.4l4.5-18.4c-12.6-3.1-25.8-4.1-39.3-2.9-65.9 5.9-114.6 64.3-108.7 130.2 2.1 23.8 11.1 45.4 24.9 62.9l14.9-11.6c-11.5-14.8-19.1-33-20.9-53z"/>
							<path id="&lt;Path&gt;" class="s1" d="m662.2 338.7c12.7 8.9 23.3 20.7 30.8 34.5l16.8-9c-9-16.4-21.6-30.4-36.7-41z"/>
							<path id="&lt;Path&gt;" class="s1" d="m703.7 488.4l-15.8-10.6c-16.4 24.3-43.2 41.3-74.6 44.1-10.1 0.9-20 0.3-29.5-1.7l-3.9 18.6c11.3 2.4 23.1 3.1 35.1 2 37.4-3.3 69.2-23.5 88.7-52.4z"/>
						</g>
						<g id="&lt;Group&gt;" style="opacity: .7">
							<path id="&lt;Compound Path&gt;" class="s7" d="m694 413.3l0.1 0.6-7.6 0.6v-0.6c-0.3-3-0.7-6-1.3-9l7.4-1.5c0.7 3.3 1.1 6.6 1.4 9.9zm0.3 3.2c0.2 3.5 0.2 7-0.1 10.5l-7.5-0.5c0.2-3.2 0.2-6.4 0-9.6zm-6.1-28.2l-7.1 2.8c-1.2-3-2.5-5.9-4-8.7l6.6-3.6c1.7 3 3.2 6.3 4.5 9.5zm3.7 54.3c-0.8 3.4-1.9 6.8-3.1 10.1l-7.1-2.6c1.1-3 2.1-6.1 2.8-9.3zm-9.4-66.1l-6.6 3.8c-1.6-2.8-3.4-5.5-5.3-8.1l6.1-4.5c2.1 2.8 4 5.7 5.8 8.8zm-7.4-10.9l-5.9 4.7c-2-2.5-4.2-4.9-6.4-7.2l5.3-5.4c2.5 2.5 4.9 5.1 7 7.9zm7 101.4c-1.8 3-3.8 5.9-5.9 8.7l-6-4.6c1.9-2.5 3.7-5.2 5.3-8zm-15.8-111.1l-5.2 5.6c-2.3-2.2-4.8-4.3-7.4-6.2l4.5-6.1c2.9 2.1 5.6 4.3 8.1 6.7zm8.3 122c-2.1 2.7-4.5 5.3-7 7.8l-5.3-5.4c2.2-2.3 4.4-4.7 6.4-7.2zm-54.7-145.2l-1.3 7.4c-3.2-0.5-6.4-0.9-9.6-1l0.4-7.6c3.5 0.2 7 0.6 10.5 1.2zm12 174.6c-3.4 1.1-6.8 2-10.2 2.6l-1.5-7.4c3.2-0.6 6.3-1.4 9.4-2.4zm-25.1-176l-0.2 7.6c-3.2-0.1-6.5 0-9.7 0.3l-0.1 0.1-0.7-7.6h0.2c3.4-0.3 7-0.5 10.5-0.4zm12.3 179.1q-3.3 0.5-6.7 0.8-1.9 0.2-3.8 0.3l-0.4-7.6q1.8-0.1 3.6-0.3 3-0.2 6-0.7zm-24.7-170.9c-3.2 0.4-6.4 1-9.5 1.7l-1.7-7.4c3.4-0.8 6.8-1.4 10.3-1.8zm11.5 164.4l0.1 7.6c-3.5 0.1-7 0-10.5-0.4l0.7-7.5c3.2 0.3 6.5 0.4 9.7 0.3zm-23.3-162.1c-3.1 0.8-6.2 1.9-9.1 3.1l-2.9-7.1c3.3-1.3 6.6-2.4 10-3.3zm-11.4 4c-2.9 1.3-5.8 2.7-8.5 4.4l-3.9-6.6c3-1.8 6.2-3.4 9.4-4.8zm10.8 155.1l-2.1 7.3c-3.3-0.9-6.7-2.1-9.9-3.4l2.9-7c2.9 1.2 6 2.2 9.1 3.1zm-40.1-25.5l-5.8 4.9c-2.3-2.6-4.4-5.4-6.4-8.3l6.3-4.3c1.8 2.7 3.8 5.2 5.9 7.7zm-12.9-20.3l-7 3.1c-1.4-3.2-2.6-6.5-3.7-9.8l7.3-2.3c0.9 3.1 2.1 6.1 3.4 9zm-6.4-44.8c-0.5 3.2-0.7 6.4-0.8 9.6l-7.6-0.1c0.1-3.5 0.4-7 0.8-10.5zm2.4 33.5l-7.3 2c-1-3.4-1.7-6.8-2.3-10.3l7.5-1.2c0.5 3.2 1.2 6.4 2.1 9.5zm-3.1-21.5q0 3.3 0.3 6.5 0 0 0 0.1 0.2 1.5 0.4 3.1l-7.6 0.9q-0.2-1.7-0.3-3.4 0 0 0 0c-0.2-2.3-0.4-4.7-0.4-7.1z"/>
							<g id="&lt;Group&gt;">
								<path id="&lt;Compound Path&gt;" fill-rule="evenodd" class="s7" d="m692.1 400.9l-7.4 1.7c-0.8-3.1-1.7-6.3-2.8-9.3l7.2-2.5c1.2 3.3 2.2 6.7 3 10.1zm-9.4-7.2q1.4 4 2.4 8.1l6.2-1.4c-0.7-3-1.6-5.9-2.6-8.8z"/>
							</g>
							<g id="&lt;Group&gt;">
								<path id="&lt;Compound Path&gt;" fill-rule="evenodd" class="s7" d="m694 429.6c-0.3 3.5-0.8 7-1.5 10.4l-7.5-1.5c0.7-3.2 1.2-6.4 1.5-9.6zm-8.3 8.4l6.2 1.3c0.6-3 1.1-6 1.4-9.1l-6.3-0.6q-0.4 4.2-1.3 8.4z"/>
							</g>
							<g id="&lt;Group&gt;">
								<path id="&lt;Compound Path&gt;" fill-rule="evenodd" class="s7" d="m687.8 455.2c-1.3 3.2-2.8 6.4-4.5 9.5l-6.6-3.7c1.5-2.8 2.9-5.7 4.1-8.7zm-10.3 5.6l5.5 3.1c1.5-2.7 2.8-5.5 4-8.4l-5.9-2.3q-1.6 3.9-3.6 7.6z"/>
							</g>
							<g id="&lt;Group&gt;">
								<path id="&lt;Compound Path&gt;" fill-rule="evenodd" class="s7" d="m656 347.5l-4.3 6.3c-2.7-1.9-5.4-3.6-8.3-5.1l3.7-6.7c3 1.7 6 3.5 8.9 5.5zm-11.7 0.9q3.7 2.1 7.2 4.5l3.6-5.2c-2.5-1.7-5.1-3.4-7.8-4.8z"/>
							</g>
							<g id="&lt;Group&gt;">
								<path id="&lt;Compound Path&gt;" fill-rule="evenodd" class="s7" d="m665.6 487.4c-2.6 2.4-5.3 4.6-8.1 6.7l-4.5-6.1c2.6-1.9 5.1-4 7.4-6.2zm-11.7 0.8l3.7 5.1c2.5-1.9 4.9-3.8 7.1-5.9l-4.3-4.6q-3.1 2.8-6.5 5.4z"/>
							</g>
							<g id="&lt;Group&gt;">
								<path id="&lt;Compound Path&gt;" fill-rule="evenodd" class="s7" d="m644.7 340.8l-3.4 6.8c-2.9-1.5-5.8-2.8-8.8-3.9l2.6-7.1c3.2 1.2 6.5 2.6 9.6 4.2zm-11.4 2.6q3.9 1.5 7.7 3.3l2.9-5.6c-2.8-1.4-5.6-2.6-8.5-3.7z"/>
							</g>
							<g id="&lt;Group&gt;">
								<path id="&lt;Compound Path&gt;" fill-rule="evenodd" class="s7" d="m655.3 495.6c-2.8 2-5.9 3.9-9 5.5l-3.5-6.7c2.8-1.5 5.6-3.2 8.2-5zm-11.7-1l3 5.6c2.7-1.5 5.3-3.1 7.8-4.8l-3.5-5.2q-3.5 2.4-7.3 4.4z"/>
							</g>
							<g id="&lt;Group&gt;">
								<path id="&lt;Compound Path&gt;" fill-rule="evenodd" class="s7" d="m632.6 335.7l-2.4 7.3c-3.1-1.1-6.2-1.9-9.3-2.5l1.5-7.5c3.4 0.7 6.8 1.6 10.2 2.7zm-11 4.3q4.1 0.9 8.2 2.2l2-6c-3-1-5.9-1.8-8.9-2.4z"/>
							</g>
							<g id="&lt;Group&gt;">
								<path id="&lt;Compound Path&gt;" fill-rule="evenodd" class="s7" d="m644 502.3c-3.1 1.5-6.4 2.9-9.7 4.1l-2.5-7.2c3-1.1 6-2.3 8.8-3.7zm-11.4-2.7l2.1 5.9c2.9-1 5.7-2.2 8.5-3.5l-2.8-5.7q-3.8 1.8-7.8 3.3z"/>
							</g>
							<g id="&lt;Group&gt;">
								<path id="&lt;Compound Path&gt;" fill-rule="evenodd" class="s7" d="m593.7 503.2l-0.9 7.6c-3.5-0.5-7-1.1-10.4-2l1.9-7.4c3.1 0.8 6.2 1.4 9.4 1.8zm-10.5 5.1c3 0.8 6 1.3 9 1.7l0.8-6.2q-4.2-0.6-8.3-1.6z"/>
							</g>
							<g id="&lt;Group&gt;">
								<path id="&lt;Compound Path&gt;" fill-rule="evenodd" class="s7" d="m560.5 351.4c-2.7 1.7-5.4 3.5-7.9 5.6l-4.7-6c2.7-2.2 5.6-4.2 8.5-6.1zm-11.7-0.2l4 4.9q3.3-2.6 6.9-4.9l-3.4-5.3c-2.6 1.6-5.1 3.4-7.5 5.3z"/>
							</g>
							<g id="&lt;Group&gt;">
								<path id="&lt;Compound Path&gt;" fill-rule="evenodd" class="s7" d="m570.6 496.7l-3.1 6.9c-3.2-1.4-6.4-3-9.4-4.8l3.9-6.5c2.8 1.6 5.7 3.1 8.6 4.4zm-11.6 1.9c2.6 1.5 5.4 2.9 8.2 4.2l2.6-5.8q-3.9-1.7-7.5-3.9z"/>
							</g>
							<g id="&lt;Group&gt;">
								<path id="&lt;Compound Path&gt;" fill-rule="evenodd" class="s7" d="m550.8 358.5c-2.5 2.1-4.8 4.3-7 6.7l-5.6-5.2c2.4-2.6 5-5 7.6-7.3zm-11.6 1.5l4.7 4.3q2.9-3.1 6.1-5.9l-4.1-4.8c-2.4 2-4.6 4.2-6.7 6.4z"/>
							</g>
							<g id="&lt;Group&gt;">
								<path id="&lt;Compound Path&gt;" fill-rule="evenodd" class="s7" d="m560 491l-4.1 6.4c-2.9-1.9-5.8-4-8.5-6.2l4.8-5.9c2.4 2.1 5.1 4 7.8 5.7zm-11.7 0.1c2.3 2 4.8 3.8 7.4 5.4l3.4-5.3q-3.5-2.3-6.8-5z"/>
							</g>
							<g id="&lt;Group&gt;">
								<path id="&lt;Compound Path&gt;" fill-rule="evenodd" class="s7" d="m542.2 367c-2.1 2.4-4.1 4.9-5.9 7.6l-6.3-4.3c2-2.9 4.2-5.7 6.5-8.3zm-11.3 3.1l5.2 3.6q2.4-3.5 5.2-6.7l-4.8-4.2c-2 2.4-3.9 4.8-5.6 7.3z"/>
							</g>
							<g id="&lt;Group&gt;">
								<path id="&lt;Compound Path&gt;" fill-rule="evenodd" class="s7" d="m550.3 483.8l-5 5.7c-2.6-2.2-5.1-4.7-7.5-7.3l5.6-5.1c2.2 2.3 4.5 4.6 6.9 6.7zm-11.6-1.6c2.1 2.3 4.3 4.4 6.6 6.4l4.1-4.7q-3.2-2.8-6-5.9z"/>
							</g>
							<g id="&lt;Group&gt;">
								<path id="&lt;Compound Path&gt;" fill-rule="evenodd" class="s7" d="m534.9 376.6c-1.7 2.7-3.3 5.5-4.7 8.4l-6.8-3.4c1.5-3.1 3.3-6.2 5.2-9.1zm-10.8 4.7l5.7 2.8q1.9-3.8 4.2-7.4l-5.3-3.4c-1.7 2.6-3.2 5.3-4.6 8z"/>
							</g>
							<g id="&lt;Group&gt;">
								<path id="&lt;Compound Path&gt;" fill-rule="evenodd" class="s7" d="m529.1 387.1c-1.3 3-2.5 6-3.4 9l-7.3-2.3c1.1-3.3 2.4-6.6 3.8-9.8zm-9.9 6.3l6 1.9q1.4-4 3.1-7.9l-5.8-2.6c-1.2 2.8-2.3 5.7-3.3 8.6z"/>
							</g>
							<g id="&lt;Group&gt;">
								<path id="&lt;Compound Path&gt;" fill-rule="evenodd" class="s7" d="m534.6 465.6l-6.4 4.1c-1.9-3-3.6-6-5.1-9.2l6.8-3.3c1.4 2.9 3 5.7 4.7 8.4zm-10.7-4.8c1.4 2.7 2.9 5.4 4.5 8l5.3-3.4q-2.2-3.6-4.1-7.4z"/>
							</g>
							<g id="&lt;Group&gt;">
								<path id="&lt;Compound Path&gt;" fill-rule="evenodd" class="s7" d="m525 398.4c-0.9 3.1-1.7 6.3-2.2 9.5l-7.5-1.3c0.6-3.4 1.4-6.9 2.4-10.3zm-8.9 7.7l6.2 1q0.7-4.1 1.9-8.2l-6.1-1.8c-0.8 3-1.5 6-2 9z"/>
							</g>
						</g>
						<g id="&lt;Group&gt;">
							<path id="&lt;Compound Path&gt;" fill-rule="evenodd" class="s13" d="m672.1 415.2c3.4 37.4-24.3 70.6-61.7 74-37.4 3.3-70.6-24.3-73.9-61.7-3.4-37.4 24.3-70.6 61.7-74 37.4-3.3 70.5 24.3 73.9 61.7zm-87.7 7.9c1 11 10.7 19.1 21.7 18.1 10.9-1 19-10.7 18.1-21.6-1-11-10.8-19.1-21.7-18.1-11 1-19.1 10.7-18.1 21.6z"/>
						</g>
						<path id="&lt;Path&gt;" class="s14" d="m602.1 397.6c13.2-1.2 24.8 8.5 26 21.6 1.1 13.1-8.5 24.7-21.7 25.9-13.1 1.2-24.7-8.5-25.9-21.6-1.2-13.1 8.5-24.8 21.6-25.9z"/>
					</g>
					<path id="&lt;Path&gt;" class="s15" d="m675.3 190.2h-38.6l-19.3 33.5 19.3 33.5h38.6l19.4-33.5z"/>
					<path id="&lt;Path&gt;" class="s16" d="m21.5 215.6h-19.3l-9.7 16.7 9.7 16.7h19.3l9.7-16.7z"/>
					<path id="&lt;Path&gt;" class="s16" d="m636.4-10.2h-19.4l-9.6 16.8 9.6 16.7h19.4l9.6-16.7z"/>
					<path id="&lt;Path&gt;" class="s16" d="m516.8 264.1h-19.4l-9.6 16.7 9.6 16.7h19.4l9.6-16.7z"/>
					<path id="&lt;Path&gt;" class="s17" d="m692.2 162.2h-26.3l-13.2 22.9 13.2 22.8h26.3l13.2-22.8z"/>
					<path id="&lt;Path&gt;" class="s18" d="m85.6 23.3h-35.5l-17.7 30.8 17.7 30.7h35.5l17.8-30.7z"/>
					<path id="&lt;Path&gt;" class="s15" d="m234.7 414.5h-35.5l-17.8 30.7 17.8 30.8h35.5l17.8-30.8z"/>
					<g id="&lt;Group&gt;" style="opacity: .4">
						<g id="&lt;Group&gt;">
							<path id="&lt;Path&gt;" class="s10" d="m408.1 0l39.9 39.9h128.6l37 37"/>
							<g id="&lt;Group&gt;">
								<path id="&lt;Path&gt;" class="s7" d="m613.5 81.5l4.7-4.7-4.7-4.7-4.7 4.7z"/>
							</g>
						</g>
					</g>
					<g id="&lt;Group&gt;" style="opacity: .4">
						<g id="&lt;Group&gt;">
							<path id="&lt;Path&gt;" class="s10" d="m750.8 133.7h-107.4l-62.5 62.5h-195.3"/>
							<g id="&lt;Group&gt;">
								<path id="&lt;Path&gt;" class="s7" d="m382.5 192.9v6.6h6.6v-6.6z"/>
							</g>
						</g>
					</g>
					<g id="&lt;Group&gt;" style="opacity: .4">
						<g id="&lt;Group&gt;">
							<path id="&lt;Path&gt;" class="s10" d="m51 0v133.7l-33.7 33.6v150.7l32 32"/>
							<g id="&lt;Group&gt;">
								<path id="&lt;Path&gt;" class="s7" d="m49.2 354.5l4.7-4.7-4.7-4.6-4.7 4.6z"/>
							</g>
						</g>
					</g>
					<g id="&lt;Group&gt;">
						<g id="&lt;Group&gt;">
							<path id="&lt;Path&gt;" class="s19" d="m439.9 0l60.4 60.4h224.3"/>
							<g id="&lt;Group&gt;">
								<path id="&lt;Path&gt;" class="s7" d="m726.1 62.1v-3.3h-3.3v3.3z"/>
							</g>
						</g>
					</g>
					<path id="&lt;Path&gt;" class="s19" d="m135.4 0l-52 52h-82.6"/>
					<g id="&lt;Group&gt;">
						<g id="&lt;Group&gt;">
							<path id="&lt;Path&gt;" class="s19" d="m0.8 122l78.4 78.4v73.9"/>
							<g id="&lt;Group&gt;">
								<path id="&lt;Path&gt;" class="s7" d="m77.5 275.8h3.3v-3.3h-3.3z"/>
							</g>
						</g>
					</g>
					<g id="&lt;Group&gt;">
						<g id="&lt;Group&gt;">
							<path id="&lt;Path&gt;" class="s19" d="m750.8 341.1l-58.2-58.2h-185.5l-103.1 103.1"/>
							<g id="&lt;Group&gt;">
								<path id="&lt;Path&gt;" class="s7" d="m401.7 385.9l2.4 2.3 2.3-2.3-2.3-2.3z"/>
							</g>
						</g>
					</g>
					<path id="&lt;Path&gt;" class="s20" d="m556.9 244.8c0 1.7-1.4 3.2-3.2 3.2-1.7 0-3.1-1.5-3.1-3.2 0-1.7 1.4-3.2 3.1-3.2 1.8 0 3.2 1.5 3.2 3.2z"/>
					<path id="&lt;Path&gt;" class="s20" d="m156.6 404.7c0 1-0.8 1.7-1.7 1.7-1 0-1.8-0.7-1.8-1.7 0-1 0.8-1.7 1.8-1.7 0.9 0 1.7 0.7 1.7 1.7z"/>
					<path id="&lt;Path&gt;" class="s20" d="m689.6 33.4c0 0.9-0.8 1.7-1.8 1.7-0.9 0-1.7-0.8-1.7-1.7 0-1 0.8-1.8 1.7-1.8 1 0 1.8 0.8 1.8 1.8z"/>
					<path id="&lt;Path&gt;" class="s20" d="m448.7 71.7c0 1-0.8 1.7-1.8 1.7-0.9 0-1.7-0.7-1.7-1.7 0-1 0.8-1.7 1.7-1.7 1 0 1.8 0.7 1.8 1.7z"/>
					<path id="&lt;Path&gt;" class="s20" d="m69.6 154c0 1-0.8 1.8-1.7 1.8-1 0-1.8-0.8-1.8-1.8 0-0.9 0.8-1.7 1.8-1.7 0.9 0 1.7 0.8 1.7 1.7z"/>
					<path id="&lt;Path&gt;" class="s20" d="m727.9 271.2c0 0.9-0.8 1.7-1.8 1.7-0.9 0-1.7-0.8-1.7-1.7 0-1 0.8-1.7 1.7-1.7 1 0 1.8 0.7 1.8 1.7z"/>
					<path id="&lt;Path&gt;" class="s20" d="m161.4 30.2c0 1.8-1.4 3.2-3.1 3.2-1.8 0-3.2-1.4-3.2-3.2 0-1.7 1.4-3.1 3.2-3.1 1.7 0 3.1 1.4 3.1 3.1z"/>
				</g>
			</g>
		</g>
	</g>
	<g id="BACKGROUND 1">
		<g id="&lt;Clip Group&gt;" clip-path="url(#cp2)">
			<g id="&lt;Group&gt;">
				<path id="&lt;Path&gt;" class="s21" d="m56 500h-750v-500h750z"/>
				<g id="&lt;Clip Group&gt;" clip-path="url(#cp3)">
					<g id="&lt;Group&gt;">
						<g id="&lt;Group&gt;">
							<path id="&lt;Path&gt;" class="s1" d="m-134.4 122c0 11-8.9 19.9-19.9 19.9-11 0-19.9-8.9-19.9-19.9 0-11 8.9-19.9 19.9-19.9 11 0 19.9 8.9 19.9 19.9z"/>
							<path id="&lt;Path&gt;" class="s1" d="m-142.6 122c0 6.4-5.2 11.7-11.7 11.7-6.4 0-11.6-5.3-11.6-11.7 0-6.4 5.2-11.7 11.6-11.7 6.5 0 11.7 5.3 11.7 11.7z"/>
							<path id="&lt;Path&gt;" class="s2" d="m-129.8 122c0 13.5-11 24.4-24.5 24.4-13.5 0-24.4-10.9-24.4-24.4 0-13.5 10.9-24.4 24.4-24.4 13.5 0 24.5 10.9 24.5 24.4z"/>
						</g>
						<g id="&lt;Group&gt;">
							<path id="&lt;Path&gt;" class="s1" d="m-572.8 453.9c0 32.2-26.2 58.4-58.4 58.4-32.2 0-58.4-26.2-58.4-58.4 0-32.3 26.2-58.4 58.4-58.4 32.2 0 58.4 26.1 58.4 58.4z"/>
							<path id="&lt;Path&gt;" class="s1" d="m-586.5 453.9c0 24.7-20 44.7-44.7 44.7-24.7 0-44.7-20-44.7-44.7 0-24.7 20-44.8 44.7-44.8 24.7 0 44.7 20.1 44.7 44.8z"/>
							<path id="&lt;Path&gt;" class="s3" d="m-559.4 453.9c0 39.6-32.1 71.8-71.8 71.8-39.7 0-71.8-32.2-71.8-71.8 0-39.7 32.1-71.8 71.8-71.8 39.7 0 71.8 32.1 71.8 71.8z"/>
							<path id="&lt;Path&gt;" class="s4" d="m-606 453.9c0 13.9-11.3 25.2-25.2 25.2-13.9 0-25.2-11.3-25.2-25.2 0-13.9 11.3-25.2 25.2-25.2 13.9 0 25.2 11.3 25.2 25.2z"/>
						</g>
						<g id="&lt;Group&gt;">
							<path id="&lt;Path&gt;" class="s5" d="m-269.5 113.3c55.7 78.8 37 187.8-41.7 243.4-78.7 55.7-187.7 37.1-243.4-41.7-55.7-78.7-37-187.7 41.7-243.4 78.8-55.7 187.7-37 243.4 41.7z"/>
							<path id="&lt;Path&gt;" class="s6" d="m-286.7 125.5c49 69.2 32.6 165.1-36.7 214.1-69.2 49-165.1 32.5-214-36.7-49-69.3-32.6-165.1 36.7-214.1 69.2-49 165.1-32.6 214 36.7z"/>
							<g id="&lt;Group&gt;">
								<path id="&lt;Path&gt;" class="s1" d="m-504.2 83.9c71.8-50.9 171.7-33.8 222.5 38.1 10.4 14.8 18 30.7 22.8 47.1l28.8-8.4c-5.7-19.6-14.7-38.5-27.1-56-60.4-85.4-179-105.7-264.3-45.3-30.9 21.8-53.2 51.2-66.3 83.8l27.8 11.3c11-27.5 29.8-52.3 55.8-70.6z"/>
								<path id="&lt;Path&gt;" class="s1" d="m-253.1 227.8c-2.1 24.4-9.8 48.3-22.7 69.5l25.5 15.8c15.4-25.3 24.6-53.7 27.1-82.7z"/>
								<path id="&lt;Path&gt;" class="s1" d="m-424.9 403.3l2-29.9c-46.2-3.2-90.7-26.4-119.5-67-9.3-13.2-16.3-27.3-21.1-41.8l-28.5 9.5c5.8 17.2 14.1 34 25.1 49.6 34.2 48.3 87.1 75.8 142 79.6z"/>
							</g>
							<g id="&lt;Group&gt;" style="opacity: .7">
								<path id="&lt;Compound Path&gt;" class="s7" d="m-329.8 330.5l-0.8 0.5-6.8-9.8 0.7-0.5c3.9-2.8 7.7-5.8 11.3-8.9l7.9 9c-3.9 3.4-8 6.7-12.3 9.7zm-4.2 2.9c-4.6 3-9.5 5.8-14.4 8.3l-5.4-10.8c4.5-2.2 9-4.8 13.2-7.6zm33.7-30.7l-9.4-7.4c3.1-4 6.1-8.2 8.7-12.5l10.2 6.3c-2.9 4.7-6.1 9.3-9.5 13.6zm-71.3 48.2c-5.3 1.6-10.8 2.8-16.2 3.8l-2.1-11.8c5-0.9 10-2.1 14.9-3.5zm83-65.4l-10.4-6c2.5-4.4 4.8-8.9 6.8-13.6l11 4.7c-2.2 5.1-4.7 10.1-7.4 14.9zm9-18.7l-11.2-4.4c1.9-4.7 3.5-9.6 4.8-14.5l11.6 3.1c-1.4 5.3-3.2 10.7-5.2 15.8zm-133.1 89.9c-5.5 0-11.1-0.4-16.6-1l1.4-12c5.1 0.7 10.2 1 15.2 1zm139.4-109.7l-11.7-2.8c1.2-4.9 2.1-10 2.7-15l11.9 1.4c-0.7 5.5-1.6 11-2.9 16.4zm-160.1 108.1c-5.4-0.8-10.9-2-16.3-3.5l3.2-11.5c4.9 1.3 9.9 2.4 14.9 3.1zm155.2-190.1l-11.3 4.2c-1.7-4.8-3.8-9.4-6.1-14l10.7-5.4c2.5 4.9 4.8 10.1 6.7 15.2zm-229.3 155c-4.1-3.7-8-7.7-11.7-11.9l9.1-7.9c3.3 3.8 6.9 7.5 10.6 10.9zm220.7-173.9l-10.5 5.8c-2.4-4.5-5.1-8.8-8.1-13l-0.1-0.2 9.8-6.9 0.1 0.2c3.2 4.5 6.2 9.3 8.8 14.1zm-235 158.8c-2.2-2.7-4.4-5.5-6.4-8.4q-1.8-2.4-3.4-5l10.1-6.5q1.5 2.3 3.1 4.6c1.8 2.6 3.8 5.2 5.9 7.7zm214-169.3c-3.1-4-6.4-8-9.9-11.6l8.7-8.3c3.8 4 7.4 8.3 10.8 12.7zm-215.8 146.1l-10.3 6.2c-2.9-4.7-5.5-9.7-7.8-14.7l11-5c2.1 4.6 4.5 9.2 7.1 13.5zm203.2-160.4c-3.6-3.6-7.4-7-11.4-10.1l7.3-9.5c4.4 3.4 8.6 7.1 12.5 11zm-14.4-12.3c-4.1-3-8.4-5.8-12.8-8.3l5.9-10.4c4.8 2.7 9.5 5.7 13.9 9zm-203.4 137.8l-11.7 3c-1.3-5.4-2.4-10.9-3.1-16.4l11.8-1.6c0.7 5 1.7 10.1 3 15zm3.1-75.2l-11.4-3.9c1.8-5.2 3.9-10.4 6.3-15.3l10.9 5.2c-2.2 4.5-4.2 9.3-5.8 14zm17.4-33.7l-9.7-7c3.2-4.5 6.8-8.8 10.5-12.9l8.9 8.1c-3.5 3.8-6.7 7.7-9.7 11.8zm56.2-44.3c-4.7 2-9.3 4.2-13.8 6.7l-5.8-10.5c4.8-2.7 9.9-5.1 15-7.3zm-43.9 29.8l-8.6-8.4c3.8-4 8-7.7 12.3-11.2l7.5 9.3c-3.9 3.2-7.7 6.7-11.2 10.3zm26.9-21.2c-3 1.7-5.9 3.6-8.7 5.6q0 0 0 0-2 1.4-4 2.9l-7.2-9.5q2.1-1.6 4.3-3.2 0 0 0 0c3.1-2.2 6.2-4.2 9.4-6.1z"/>
								<g id="&lt;Group&gt;">
									<path id="&lt;Compound Path&gt;" fill-rule="evenodd" class="s7" d="m-303 305.9c-3.5 4.2-7.4 8.3-11.4 12.1l-8.2-8.8c3.7-3.5 7.2-7.2 10.5-11.1zm-18.3 3.4l6.9 7.3c3.5-3.3 6.8-6.9 9.9-10.5l-7.6-6.5c-2.9 3.4-6 6.7-9.2 9.7z"/>
								</g>
								<g id="&lt;Group&gt;">
									<path id="&lt;Compound Path&gt;" fill-rule="evenodd" class="s7" d="m-352.2 343.5c-5 2.3-10.2 4.4-15.5 6.1l-3.7-11.4c4.8-1.6 9.6-3.5 14.2-5.6zm-18-4.7l3.1 9.5c4.6-1.5 9.1-3.3 13.5-5.3l-4.2-9.1c-4 1.9-8.2 3.5-12.4 4.9z"/>
								</g>
								<g id="&lt;Group&gt;">
									<path id="&lt;Compound Path&gt;" fill-rule="evenodd" class="s7" d="m-392 355.3c-5.5 0.7-11 1.2-16.6 1.3l-0.3-12c5.1-0.1 10.2-0.5 15.2-1.2zm-15.8-9.7l0.2 10c4.9-0.1 9.7-0.5 14.5-1.2l-1.4-9.9c-4.4 0.6-8.9 1-13.3 1.1z"/>
								</g>
								<g id="&lt;Group&gt;">
									<path id="&lt;Compound Path&gt;" fill-rule="evenodd" class="s7" d="m-270.1 226.4l-12-1.1c0.5-5 0.6-10.1 0.5-15.2l12-0.4c0.1 5.6 0 11.2-0.5 16.7zm-10.5-15.3c0.1 4.4 0 8.9-0.4 13.3l10 0.9c0.4-4.8 0.5-9.7 0.4-14.5z"/>
								</g>
								<g id="&lt;Group&gt;">
									<path id="&lt;Compound Path&gt;" fill-rule="evenodd" class="s7" d="m-450.2 338.9l-3.5 11.5c-5.3-1.6-10.6-3.5-15.6-5.8l4.8-11c4.6 2.1 9.4 3.9 14.3 5.3zm-17.8 5.2c4.4 1.9 9 3.6 13.6 5.1l2.9-9.6c-4.2-1.3-8.4-2.9-12.5-4.6z"/>
								</g>
								<g id="&lt;Group&gt;">
									<path id="&lt;Compound Path&gt;" fill-rule="evenodd" class="s7" d="m-269.8 205.6l-12 0.7c-0.3-5.1-0.9-10.2-1.8-15.1l11.8-2.2c1 5.5 1.7 11.1 2 16.6zm-12.6-13.6c0.7 4.3 1.2 8.8 1.5 13.2l10-0.6c-0.3-4.8-0.9-9.6-1.7-14.4z"/>
								</g>
								<g id="&lt;Group&gt;">
									<path id="&lt;Compound Path&gt;" fill-rule="evenodd" class="s7" d="m-468 332.1l-5.1 10.8c-5-2.3-9.9-5-14.6-8l6.4-10.1c4.2 2.6 8.7 5.1 13.3 7.3zm-18.3 2.5c4.1 2.5 8.4 4.9 12.7 7l4.3-9.1c-4-1.9-7.9-4-11.7-6.4z"/>
								</g>
								<g id="&lt;Group&gt;">
									<path id="&lt;Compound Path&gt;" fill-rule="evenodd" class="s7" d="m-272.6 185l-11.7 2.4c-1.1-5-2.4-9.9-4-14.7l11.4-3.8c1.7 5.2 3.2 10.6 4.3 16.1zm-14.4-11.7c1.3 4.2 2.5 8.6 3.5 12.9l9.7-2c-1-4.8-2.3-9.5-3.8-14.1z"/>
								</g>
								<g id="&lt;Group&gt;">
									<path id="&lt;Compound Path&gt;" fill-rule="evenodd" class="s7" d="m-484.5 322.7l-6.7 10c-4.6-3.1-9.1-6.5-13.3-10.1l7.8-9.1c3.9 3.3 8 6.4 12.2 9.2zm-18.6-0.2c3.7 3.1 7.6 6.1 11.6 8.8l5.6-8.3c-3.7-2.5-7.3-5.2-10.7-8.1z"/>
								</g>
								<g id="&lt;Group&gt;">
									<path id="&lt;Compound Path&gt;" fill-rule="evenodd" class="s7" d="m-532.4 264.7l-11 4.7c-2.2-5.1-4-10.4-5.6-15.7l11.6-3.4c1.4 4.9 3.1 9.7 5 14.4zm-15.3-10.4c1.3 4.7 3 9.3 4.8 13.8l9.2-3.9c-1.7-4.1-3.2-8.4-4.4-12.6z"/>
								</g>
								<g id="&lt;Group&gt;">
									<path id="&lt;Compound Path&gt;" fill-rule="evenodd" class="s7" d="m-345.5 88.2l-5.6 10.6c-4.5-2.4-9.1-4.5-13.9-6.3l4.3-11.2c5.2 2 10.3 4.3 15.2 6.9zm-18.2 3.7c4.2 1.6 8.2 3.5 12.2 5.5l4.6-8.8c-4.3-2.2-8.7-4.2-13.2-6z"/>
								</g>
								<g id="&lt;Group&gt;">
									<path id="&lt;Compound Path&gt;" fill-rule="evenodd" class="s7" d="m-542.5 212.7c-0.1 5 0.2 10.2 0.7 15.2l-11.9 1.2c-0.6-5.5-0.9-11-0.8-16.6zm-10.4 15.4l10-1c-0.4-4.5-0.6-8.9-0.6-13.4l-10-0.1c0 4.8 0.2 9.7 0.6 14.5z"/>
								</g>
								<g id="&lt;Group&gt;">
									<path id="&lt;Compound Path&gt;" fill-rule="evenodd" class="s7" d="m-364.6 79.8l-3.9 11.4c-4.8-1.7-9.7-3.1-14.7-4.3l2.7-11.7c5.4 1.3 10.7 2.8 15.9 4.6zm-17.4 6.4c4.3 1 8.6 2.2 12.8 3.7l3.4-9.4c-4.6-1.6-9.3-3-14-4.1z"/>
								</g>
								<g id="&lt;Group&gt;">
									<path id="&lt;Compound Path&gt;" fill-rule="evenodd" class="s7" d="m-540.9 193.7c-0.8 5-1.3 10.1-1.5 15.2l-12-0.5c0.2-5.6 0.8-11.1 1.7-16.6zm-12.5 13.7l10 0.4c0.2-4.4 0.6-8.9 1.3-13.3l-9.9-1.5c-0.7 4.7-1.2 9.6-1.4 14.4z"/>
								</g>
								<g id="&lt;Group&gt;">
									<path id="&lt;Compound Path&gt;" fill-rule="evenodd" class="s7" d="m-384.6 74.4l-2.3 11.8c-5-1-10.1-1.7-15.1-2.1l0.9-12c5.5 0.5 11.1 1.2 16.5 2.3zm-16.3 8.8c4.4 0.4 8.8 1 13.2 1.8l1.9-9.8c-4.7-0.9-9.6-1.6-14.4-2z"/>
								</g>
								<g id="&lt;Group&gt;">
									<path id="&lt;Compound Path&gt;" fill-rule="evenodd" class="s7" d="m-536.5 175.1c-1.6 4.9-2.8 9.9-3.7 14.8l-11.8-2.2c1-5.4 2.4-10.9 4-16.1zm-14.3 11.7l9.8 1.9c0.9-4.4 2-8.7 3.3-13l-9.6-3c-1.4 4.7-2.6 9.4-3.5 14.1z"/>
								</g>
								<g id="&lt;Group&gt;">
									<path id="&lt;Compound Path&gt;" fill-rule="evenodd" class="s7" d="m-405.3 71.9l-0.5 12q-3.2-0.2-6.4-0.2-4.4 0-8.9 0.3l-0.8-12q4.9-0.3 9.7-0.3 3.5 0 6.9 0.2zm-15.5 1.1l0.7 9.9q3.9-0.2 7.9-0.2 2.7 0 5.4 0.1l0.5-10q-2.9-0.1-5.9-0.1c-2.8 0-5.8 0.1-8.6 0.3z"/>
								</g>
								<g id="&lt;Group&gt;">
									<path id="&lt;Compound Path&gt;" fill-rule="evenodd" class="s7" d="m-424.9 84.3c-5 0.5-10.1 1.3-15 2.4l-2.6-11.7c5.4-1.2 10.9-2.1 16.5-2.6zm-16.5-8.6l2.2 9.8c4.3-1 8.7-1.7 13.2-2.1l-1-10c-4.8 0.5-9.6 1.3-14.4 2.3z"/>
								</g>
								<g id="&lt;Group&gt;">
									<path id="&lt;Compound Path&gt;" fill-rule="evenodd" class="s7" d="m-520.1 140.9c-2.8 4.2-5.4 8.6-7.8 13.1l-10.6-5.5c2.5-4.9 5.4-9.7 8.5-14.3zm-17.1 7.2l8.9 4.6c2.1-4 4.4-7.8 6.8-11.5l-8.3-5.6c-2.6 4-5.1 8.2-7.4 12.5z"/>
								</g>
								<g id="&lt;Group&gt;">
									<path id="&lt;Compound Path&gt;" fill-rule="evenodd" class="s7" d="m-443.7 87.6c-4.9 1.2-9.8 2.7-14.5 4.5l-4.3-11.2c5.2-2 10.6-3.6 15.9-5zm-17.5-6.1l3.6 9.4c4.1-1.6 8.4-2.9 12.7-4l-2.4-9.7c-4.7 1.2-9.3 2.6-13.9 4.3z"/>
								</g>
							</g>
							<g id="&lt;Group&gt;">
								<path id="&lt;Compound Path&gt;" fill-rule="evenodd" class="s22" d="m-363 283.5c-38.2 27-91.3 17.9-118.3-20.3-27.1-38.2-18-91.3 20.2-118.3 38.3-27 91.3-17.9 118.3 20.3 27.1 38.2 18 91.2-20.2 118.3zm-63.4-89.6c-11.2 7.9-13.9 23.4-6 34.6 8 11.2 23.5 13.9 34.7 6 11.2-7.9 13.9-23.5 6-34.7-8-11.2-23.5-13.8-34.7-5.9z"/>
							</g>
							<path id="&lt;Path&gt;" class="s9" d="m-381.2 192.4c12 17 8 40.6-9 52.6-17.1 12-40.6 8-52.7-9-12-17-8-40.6 9.1-52.6 17-12.1 40.5-8 52.6 9z"/>
						</g>
						<g id="&lt;Group&gt;" style="opacity: .4">
							<g id="&lt;Group&gt;">
								<path id="&lt;Path&gt;" class="s10" d="m-544.3 500l51.1-51.1h232.9"/>
								<g id="&lt;Group&gt;">
									<path id="&lt;Path&gt;" class="s7" d="m-257.2 452.2v-6.6h-6.6v6.6z"/>
								</g>
							</g>
						</g>
						<g id="&lt;Group&gt;">
							<path id="&lt;Path&gt;" class="s11" d="m-100.4 311.3c60.7-5.5 114.4 39.4 119.9 100.1 5.5 60.8-39.3 114.5-100.1 120-60.8 5.5-114.5-39.4-120-100.1-5.4-60.8 39.4-114.5 100.2-120z"/>
							<path id="&lt;Path&gt;" class="s12" d="m-99.3 324.6c53.5-4.8 100.7 34.6 105.5 88 4.9 53.5-34.6 100.7-88 105.5-53.4 4.8-100.7-34.6-105.5-88-4.8-53.5 34.6-100.7 88-105.5z"/>
							<g id="&lt;Group&gt;">
								<path id="&lt;Path&gt;" class="s1" d="m-191.1 430.4c-5-55.4 36-104.6 91.5-109.6 11.4-1.1 22.5-0.1 33 2.4l4.6-18.4c-12.6-3.1-25.8-4.1-39.3-2.9-65.9 5.9-114.6 64.3-108.7 130.2 2.1 23.8 11.1 45.4 24.8 62.9l15-11.6c-11.5-14.8-19.1-33-20.9-53z"/>
								<path id="&lt;Path&gt;" class="s1" d="m-32.6 338.7c12.7 8.9 23.3 20.7 30.8 34.5l16.7-9c-8.9-16.4-21.5-30.4-36.6-41z"/>
								<path id="&lt;Path&gt;" class="s1" d="m8.9 488.4l-15.8-10.6c-16.4 24.3-43.2 41.3-74.6 44.1-10.1 0.9-20 0.3-29.5-1.7l-3.9 18.6c11.3 2.4 23.1 3.1 35.1 2 37.3-3.3 69.2-23.5 88.7-52.4z"/>
							</g>
							<g id="&lt;Group&gt;" style="opacity: .7">
								<path id="&lt;Compound Path&gt;" class="s7" d="m-0.8 413.3l0.1 0.6-7.6 0.6v-0.6c-0.3-3-0.7-6-1.3-9l7.4-1.5c0.7 3.3 1.1 6.6 1.4 9.9zm0.3 3.2c0.2 3.5 0.1 7-0.1 10.5l-7.5-0.5c0.2-3.2 0.2-6.4 0-9.6zm-6.1-28.2l-7.1 2.8c-1.2-3-2.5-5.9-4-8.7l6.6-3.6c1.7 3 3.2 6.3 4.5 9.5zm3.7 54.3c-0.8 3.4-1.9 6.8-3.1 10.1l-7.1-2.6c1.1-3 2.1-6.1 2.8-9.3zm-9.4-66.1l-6.6 3.8c-1.6-2.8-3.4-5.5-5.3-8.1l6.1-4.5c2.1 2.8 4 5.7 5.8 8.8zm-7.4-10.9l-5.9 4.7c-2-2.5-4.2-4.9-6.4-7.2l5.3-5.4c2.5 2.5 4.8 5.1 7 7.9zm7 101.4c-1.8 3-3.8 5.9-5.9 8.7l-6.1-4.6c2-2.5 3.8-5.2 5.4-8zm-15.8-111.1l-5.2 5.6c-2.3-2.2-4.8-4.3-7.4-6.2l4.5-6.1c2.8 2.1 5.6 4.3 8.1 6.7zm8.3 122c-2.1 2.7-4.5 5.3-7 7.8l-5.3-5.4c2.2-2.3 4.4-4.7 6.4-7.2zm-54.7-145.2l-1.3 7.4c-3.2-0.5-6.4-0.9-9.6-1l0.4-7.6c3.5 0.2 7 0.6 10.5 1.2zm12 174.6c-3.4 1.1-6.8 2-10.2 2.6l-1.5-7.4c3.2-0.6 6.3-1.4 9.4-2.4zm-25.1-176l-0.2 7.6c-3.2-0.1-6.5 0-9.7 0.3l-0.1 0.1-0.7-7.6h0.1c3.5-0.3 7.1-0.5 10.6-0.4zm12.3 179.1q-3.3 0.5-6.7 0.8-1.9 0.2-3.8 0.3l-0.4-7.6q1.8-0.1 3.6-0.3 3-0.2 6-0.7zm-24.7-170.9c-3.2 0.4-6.4 1-9.5 1.7l-1.7-7.4c3.3-0.8 6.8-1.4 10.3-1.8zm11.5 164.4l0.1 7.6c-3.5 0.1-7 0-10.5-0.4l0.7-7.5c3.2 0.3 6.5 0.4 9.7 0.3zm-23.3-162.1c-3.1 0.8-6.2 1.9-9.1 3.1l-2.9-7.1c3.3-1.3 6.6-2.4 10-3.3zm-11.4 4c-2.9 1.3-5.8 2.7-8.5 4.4l-3.9-6.6c3-1.8 6.2-3.4 9.4-4.8zm10.8 155.1l-2.1 7.3c-3.3-0.9-6.7-2.1-9.9-3.4l2.9-7c2.9 1.2 6 2.2 9.1 3.1zm-40.1-25.5l-5.8 4.9c-2.3-2.6-4.4-5.4-6.4-8.3l6.3-4.3c1.8 2.7 3.8 5.2 5.9 7.7zm-12.9-20.3l-7 3.1c-1.4-3.2-2.6-6.5-3.7-9.8l7.3-2.3c0.9 3.1 2.1 6.1 3.4 9zm-6.5-44.8c-0.4 3.2-0.6 6.4-0.7 9.6l-7.6-0.1c0.1-3.5 0.4-7 0.8-10.5zm2.4 33.5l-7.4 2c-0.9-3.4-1.6-6.8-2.2-10.3l7.5-1.2c0.5 3.2 1.2 6.4 2.1 9.5zm-3.1-21.5q0 3.3 0.3 6.5 0 0 0 0.1 0.2 1.5 0.4 3.1l-7.6 0.9q-0.2-1.7-0.3-3.4 0 0 0 0c-0.2-2.3-0.4-4.7-0.4-7.1z"/>
								<g id="&lt;Group&gt;">
									<path id="&lt;Compound Path&gt;" fill-rule="evenodd" class="s7" d="m-2.7 400.9l-7.4 1.7c-0.8-3.1-1.7-6.3-2.8-9.3l7.2-2.5c1.2 3.3 2.2 6.7 3 10.1zm-9.4-7.2q1.4 4 2.4 8.1l6.2-1.4c-0.7-3-1.6-5.9-2.6-8.8z"/>
								</g>
								<g id="&lt;Group&gt;">
									<path id="&lt;Compound Path&gt;" fill-rule="evenodd" class="s7" d="m-0.8 429.6c-0.3 3.5-0.8 7-1.5 10.4l-7.5-1.5c0.7-3.2 1.2-6.4 1.5-9.6zm-8.3 8.4l6.2 1.3c0.6-3 1.1-6 1.4-9.1l-6.3-0.6q-0.4 4.2-1.3 8.4z"/>
								</g>
								<g id="&lt;Group&gt;">
									<path id="&lt;Compound Path&gt;" fill-rule="evenodd" class="s7" d="m-7 455.2c-1.3 3.2-2.8 6.4-4.5 9.5l-6.6-3.7c1.5-2.8 2.9-5.7 4.1-8.7zm-10.3 5.6l5.5 3.1c1.5-2.7 2.8-5.5 4-8.4l-5.9-2.3q-1.6 3.9-3.6 7.6z"/>
								</g>
								<g id="&lt;Group&gt;">
									<path id="&lt;Compound Path&gt;" fill-rule="evenodd" class="s7" d="m-38.8 347.5l-4.4 6.3c-2.6-1.9-5.3-3.6-8.2-5.1l3.7-6.7c3 1.7 6 3.5 8.9 5.5zm-11.7 0.9q3.7 2.1 7.2 4.5l3.6-5.2c-2.5-1.7-5.1-3.4-7.8-4.8z"/>
								</g>
								<g id="&lt;Group&gt;">
									<path id="&lt;Compound Path&gt;" fill-rule="evenodd" class="s7" d="m-29.2 487.4c-2.6 2.4-5.3 4.6-8.1 6.7l-4.5-6.1c2.6-1.9 5.1-4 7.4-6.2zm-11.7 0.8l3.7 5.1c2.5-1.9 4.9-3.8 7.1-5.9l-4.3-4.6q-3.1 2.8-6.5 5.4z"/>
								</g>
								<g id="&lt;Group&gt;">
									<path id="&lt;Compound Path&gt;" fill-rule="evenodd" class="s7" d="m-50.1 340.8l-3.4 6.8c-2.9-1.5-5.8-2.8-8.8-3.9l2.5-7.1c3.3 1.2 6.6 2.6 9.7 4.2zm-11.4 2.6q3.9 1.5 7.7 3.3l2.9-5.6c-2.8-1.4-5.6-2.6-8.5-3.7z"/>
								</g>
								<g id="&lt;Group&gt;">
									<path id="&lt;Compound Path&gt;" fill-rule="evenodd" class="s7" d="m-39.5 495.6c-2.9 2-5.9 3.9-9 5.5l-3.5-6.7c2.8-1.5 5.6-3.2 8.2-5zm-11.7-1l3 5.6c2.7-1.5 5.3-3.1 7.8-4.8l-3.5-5.2q-3.5 2.4-7.3 4.4z"/>
								</g>
								<g id="&lt;Group&gt;">
									<path id="&lt;Compound Path&gt;" fill-rule="evenodd" class="s7" d="m-62.2 335.7l-2.4 7.3c-3.1-1.1-6.2-1.9-9.3-2.5l1.5-7.5c3.4 0.7 6.8 1.6 10.2 2.7zm-11 4.3q4.1 0.9 8.2 2.2l2-6c-3-1-5.9-1.8-8.9-2.4z"/>
								</g>
								<g id="&lt;Group&gt;">
									<path id="&lt;Compound Path&gt;" fill-rule="evenodd" class="s7" d="m-50.8 502.3c-3.2 1.5-6.4 2.9-9.7 4.1l-2.5-7.2c3-1.1 6-2.3 8.8-3.7zm-11.4-2.7l2.1 5.9c2.9-1 5.7-2.2 8.5-3.5l-2.8-5.7q-3.8 1.8-7.8 3.3z"/>
								</g>
								<g id="&lt;Group&gt;">
									<path id="&lt;Compound Path&gt;" fill-rule="evenodd" class="s7" d="m-101.1 503.2l-0.9 7.6c-3.5-0.5-7-1.1-10.4-2l1.9-7.4c3.1 0.8 6.2 1.4 9.4 1.8zm-10.5 5.1c2.9 0.8 6 1.3 9 1.7l0.8-6.2q-4.2-0.6-8.3-1.6z"/>
								</g>
								<g id="&lt;Group&gt;">
									<path id="&lt;Compound Path&gt;" fill-rule="evenodd" class="s7" d="m-134.3 351.4c-2.7 1.7-5.4 3.5-7.9 5.6l-4.7-6c2.7-2.2 5.6-4.2 8.5-6.1zm-11.7-0.2l4 4.9q3.3-2.6 6.9-4.9l-3.4-5.3c-2.6 1.6-5.1 3.4-7.5 5.3z"/>
								</g>
								<g id="&lt;Group&gt;">
									<path id="&lt;Compound Path&gt;" fill-rule="evenodd" class="s7" d="m-124.2 496.7l-3.1 6.9c-3.2-1.4-6.4-3-9.4-4.8l3.9-6.5c2.8 1.6 5.7 3.1 8.6 4.4zm-11.6 1.9c2.6 1.5 5.4 2.9 8.2 4.2l2.5-5.8q-3.8-1.7-7.5-3.9z"/>
								</g>
								<g id="&lt;Group&gt;">
									<path id="&lt;Compound Path&gt;" fill-rule="evenodd" class="s7" d="m-144 358.5c-2.5 2.1-4.8 4.3-7 6.7l-5.6-5.2c2.4-2.6 5-5 7.6-7.3zm-11.6 1.5l4.6 4.3q3-3.1 6.1-5.9l-4.1-4.8c-2.3 2-4.5 4.2-6.6 6.4z"/>
								</g>
								<g id="&lt;Group&gt;">
									<path id="&lt;Compound Path&gt;" fill-rule="evenodd" class="s7" d="m-134.8 491l-4.1 6.4c-3-1.9-5.8-4-8.5-6.2l4.8-5.9c2.4 2.1 5.1 4 7.8 5.7zm-11.7 0.1c2.3 2 4.8 3.8 7.4 5.4l3.4-5.3q-3.6-2.3-6.9-5z"/>
								</g>
								<g id="&lt;Group&gt;">
									<path id="&lt;Compound Path&gt;" fill-rule="evenodd" class="s7" d="m-152.6 367c-2.1 2.4-4.1 4.9-5.9 7.6l-6.3-4.3c2-2.9 4.2-5.7 6.5-8.3zm-11.3 3.1l5.2 3.6q2.4-3.5 5.2-6.7l-4.8-4.2c-2 2.4-3.9 4.8-5.6 7.3z"/>
								</g>
								<g id="&lt;Group&gt;">
									<path id="&lt;Compound Path&gt;" fill-rule="evenodd" class="s7" d="m-144.5 483.8l-5 5.7c-2.6-2.2-5.1-4.7-7.5-7.3l5.6-5.1c2.2 2.3 4.5 4.6 6.9 6.7zm-11.6-1.6c2.1 2.3 4.3 4.4 6.6 6.4l4.1-4.7q-3.2-2.8-6-5.9z"/>
								</g>
								<g id="&lt;Group&gt;">
									<path id="&lt;Compound Path&gt;" fill-rule="evenodd" class="s7" d="m-159.9 376.6c-1.7 2.7-3.3 5.5-4.7 8.4l-6.8-3.4c1.5-3.1 3.3-6.2 5.2-9.1zm-10.8 4.7l5.7 2.8q1.9-3.8 4.2-7.4l-5.3-3.4c-1.7 2.6-3.2 5.3-4.6 8z"/>
								</g>
								<g id="&lt;Group&gt;">
									<path id="&lt;Compound Path&gt;" fill-rule="evenodd" class="s7" d="m-165.7 387.1c-1.3 3-2.5 6-3.4 9l-7.3-2.3c1.1-3.3 2.4-6.6 3.8-9.8zm-9.9 6.3l6 1.9q1.4-4 3.1-7.9l-5.8-2.6c-1.2 2.8-2.3 5.7-3.3 8.6z"/>
								</g>
								<g id="&lt;Group&gt;">
									<path id="&lt;Compound Path&gt;" fill-rule="evenodd" class="s7" d="m-160.2 465.6l-6.4 4.1c-1.9-3-3.6-6-5.1-9.2l6.8-3.3c1.4 2.9 3 5.7 4.7 8.4zm-10.7-4.8c1.4 2.7 2.9 5.4 4.5 8l5.3-3.4q-2.2-3.6-4.1-7.4z"/>
								</g>
								<g id="&lt;Group&gt;">
									<path id="&lt;Compound Path&gt;" fill-rule="evenodd" class="s7" d="m-169.9 398.4c-0.8 3.1-1.6 6.3-2.1 9.5l-7.5-1.3c0.6-3.4 1.4-6.9 2.4-10.3zm-8.9 7.7l6.2 1q0.7-4.2 1.9-8.2l-6.1-1.8c-0.8 3-1.5 6-2 9z"/>
								</g>
							</g>
							<g id="&lt;Group&gt;">
								<path id="&lt;Compound Path&gt;" fill-rule="evenodd" class="s23" d="m-22.7 415.2c3.4 37.4-24.3 70.6-61.7 74-37.4 3.3-70.6-24.3-73.9-61.7-3.4-37.4 24.3-70.6 61.7-74 37.4-3.3 70.5 24.3 73.9 61.7zm-87.7 7.9c1 11 10.7 19.1 21.7 18.1 10.9-1 19-10.7 18-21.6-0.9-11-10.7-19.1-21.6-18.1-11 1-19.1 10.7-18.1 21.6z"/>
							</g>
							<path id="&lt;Path&gt;" class="s14" d="m-92.7 397.6c13.2-1.2 24.8 8.5 26 21.6 1.1 13.1-8.5 24.7-21.7 25.9-13.1 1.2-24.7-8.5-25.9-21.6-1.2-13.1 8.5-24.8 21.6-25.9z"/>
						</g>
						<path id="&lt;Path&gt;" class="s15" d="m-19.5 190.2h-38.6l-19.3 33.5 19.3 33.5h38.6l19.4-33.5z"/>
						<path id="&lt;Path&gt;" class="s16" d="m-673.3 215.6h-19.3l-9.7 16.7 9.7 16.7h19.3l9.7-16.7z"/>
						<path id="&lt;Path&gt;" class="s16" d="m-58.4-10.2h-19.4l-9.6 16.8 9.6 16.7h19.4l9.6-16.7z"/>
						<path id="&lt;Path&gt;" class="s16" d="m-178 264.1h-19.4l-9.6 16.7 9.6 16.7h19.4l9.6-16.7z"/>
						<path id="&lt;Path&gt;" class="s17" d="m-2.6 162.2h-26.3l-13.2 22.9 13.2 22.8h26.3l13.2-22.8z"/>
						<path id="&lt;Path&gt;" class="s18" d="m-609.2 23.3h-35.5l-17.7 30.8 17.7 30.7h35.5l17.8-30.7z"/>
						<path id="&lt;Path&gt;" class="s15" d="m-460.1 414.5h-35.5l-17.8 30.7 17.8 30.8h35.5l17.8-30.8z"/>
						<g id="&lt;Group&gt;" style="opacity: .4">
							<g id="&lt;Group&gt;">
								<path id="&lt;Path&gt;" class="s10" d="m-286.7 0l39.9 39.9h128.6l37 37"/>
								<g id="&lt;Group&gt;">
									<path id="&lt;Path&gt;" class="s7" d="m-81.3 81.5l4.7-4.7-4.7-4.7-4.7 4.7z"/>
								</g>
							</g>
						</g>
						<g id="&lt;Group&gt;" style="opacity: .4">
							<g id="&lt;Group&gt;">
								<path id="&lt;Path&gt;" class="s10" d="m56 133.7h-107.4l-62.5 62.5h-195.3"/>
								<g id="&lt;Group&gt;">
									<path id="&lt;Path&gt;" class="s7" d="m-312.3 192.9v6.6h6.6v-6.6z"/>
								</g>
							</g>
						</g>
						<g id="&lt;Group&gt;" style="opacity: .4">
							<g id="&lt;Group&gt;">
								<path id="&lt;Path&gt;" class="s10" d="m-643.8 0v133.7l-33.7 33.6v150.7l32 32"/>
								<g id="&lt;Group&gt;">
									<path id="&lt;Path&gt;" class="s7" d="m-645.6 354.5l4.7-4.7-4.7-4.6-4.7 4.6z"/>
								</g>
							</g>
						</g>
						<g id="&lt;Group&gt;">
							<g id="&lt;Group&gt;">
								<path id="&lt;Path&gt;" class="s19" d="m-254.9 0l60.4 60.4h224.3"/>
								<g id="&lt;Group&gt;">
									<path id="&lt;Path&gt;" class="s7" d="m31.3 62.1v-3.3h-3.3v3.3z"/>
								</g>
							</g>
						</g>
						<path id="&lt;Path&gt;" class="s19" d="m-559.4 0l-52 52h-82.6"/>
						<g id="&lt;Group&gt;">
							<g id="&lt;Group&gt;">
								<path id="&lt;Path&gt;" class="s19" d="m-694 122l78.4 78.4v73.9"/>
								<g id="&lt;Group&gt;">
									<path id="&lt;Path&gt;" class="s7" d="m-617.3 275.8h3.3v-3.3h-3.3z"/>
								</g>
							</g>
						</g>
						<g id="&lt;Group&gt;">
							<g id="&lt;Group&gt;">
								<path id="&lt;Path&gt;" class="s19" d="m56 341.1l-58.2-58.2h-185.5l-103.1 103.1"/>
								<g id="&lt;Group&gt;">
									<path id="&lt;Path&gt;" class="s7" d="m-293.1 385.9l2.4 2.3 2.3-2.3-2.3-2.3z"/>
								</g>
							</g>
						</g>
						<path id="&lt;Path&gt;" class="s20" d="m-137.9 244.8c0 1.7-1.4 3.2-3.2 3.2-1.7 0-3.1-1.5-3.1-3.2 0-1.7 1.4-3.2 3.1-3.2 1.8 0 3.2 1.5 3.2 3.2z"/>
						<path id="&lt;Path&gt;" class="s20" d="m-538.2 404.7c0 1-0.8 1.7-1.7 1.7-1 0-1.8-0.7-1.8-1.7 0-1 0.8-1.7 1.8-1.7 0.9 0 1.7 0.7 1.7 1.7z"/>
						<path id="&lt;Path&gt;" class="s20" d="m-5.2 33.4c0 0.9-0.8 1.7-1.8 1.7-0.9 0-1.7-0.8-1.7-1.7 0-1 0.8-1.8 1.7-1.8 1 0 1.8 0.8 1.8 1.8z"/>
						<path id="&lt;Path&gt;" class="s20" d="m-246.1 71.7c0 1-0.8 1.7-1.8 1.7-0.9 0-1.7-0.7-1.7-1.7 0-1 0.8-1.7 1.7-1.7 1 0 1.8 0.7 1.8 1.7z"/>
						<path id="&lt;Path&gt;" class="s20" d="m-625.2 154c0 1-0.8 1.8-1.7 1.8-1 0-1.8-0.8-1.8-1.8 0-0.9 0.8-1.7 1.8-1.7 0.9 0 1.7 0.8 1.7 1.7z"/>
						<path id="&lt;Path&gt;" class="s20" d="m33.1 271.2c0 0.9-0.8 1.7-1.8 1.7-0.9 0-1.7-0.8-1.7-1.7 0-1 0.8-1.7 1.7-1.7 1 0 1.8 0.7 1.8 1.7z"/>
						<path id="&lt;Path&gt;" class="s20" d="m-533.4 30.2c0 1.8-1.4 3.2-3.1 3.2-1.8 0-3.2-1.4-3.2-3.2 0-1.7 1.4-3.1 3.2-3.1 1.7 0 3.1 1.4 3.1 3.1z"/>
					</g>
				</g>
			</g>
		</g>
	</g>
	<g id="DESIGNED BY FREEPIK">
		<g id="&lt;Group&gt;">
			<g id="&lt;Group&gt;">
				<g id="&lt;Group&gt;">
				</g>
			</g>
			<g id="&lt;Group&gt;">
			</g>
		</g>
		<g id="&lt;Group&gt;">
			<g id="&lt;Group&gt;">
				<g id="&lt;Group&gt;">
					<path id="&lt;Path&gt;" class="s0" d="m-308.9 465.5q-0.6 0.6-1.1 1.4l-0.5-0.2c0-0.3-0.3-0.5-0.6-0.5-0.4 0.1-0.6 0.4-0.6 0.7 0.1 0.3 0.4 0.5 0.7 0.5q0.1 0 0.2 0l0.4 0.2q-0.3 0.8-0.5 1.7l0.8 0.2c0.2-1.3 0.8-2.5 1.7-3.5z"/>
					<path id="&lt;Path&gt;" class="s0" d="m-303.4 463.2q-0.3 0-0.5 0l-0.1-0.6c0.2-0.2 0.3-0.4 0.3-0.7-0.1-0.4-0.4-0.7-0.8-0.6-0.4 0-0.7 0.4-0.6 0.8 0 0.2 0.1 0.4 0.4 0.5v0.7q-1 0.1-2 0.6l0.3 0.7q1.4-0.7 3-0.7 0.7 0 1.5 0.2l0.1-0.8q-0.8-0.1-1.6-0.1z"/>
					<path id="&lt;Path&gt;" class="s0" d="m-296.8 465.7c0.3 0 0.6-0.3 0.5-0.7 0-0.3-0.3-0.5-0.7-0.5-0.3 0.1-0.5 0.3-0.5 0.6l-0.4 0.4q-0.6-0.7-1.4-1.2l-0.4 0.7c1.1 0.7 2 1.7 2.6 2.9l0.6-0.3q-0.3-0.8-0.9-1.5l0.4-0.4q0.1 0 0.2 0z"/>
					<path id="&lt;Path&gt;" class="s0" d="m-304 473.4q-0.5 0-1.1 0c-0.9 0-1.7-0.1-2.5-0.2-0.4 0-0.8-0.1-1.3-0.3 1.1 1.9 3.1 3.2 5.4 3.2 2.9 0 5.3-2 6-4.5q-1 0.6-2.5 1.1c-1.2 0.3-2.5 0.6-4 0.7z"/>
					<path id="&lt;Compound Path&gt;" fill-rule="evenodd" class="s0" d="m-297.4 469.9q0.1 0.3 0.1 0.6c-1.4 1.2-3.8 1.9-6.7 2.1-2.6 0.2-4.7-0.2-5.4-0.7q-0.1-0.6-0.1-1.3c0-3.3 2.7-5.9 6.1-5.9 3.1 0 5.6 2.2 6 5.2zm-6.3-0.6c0-1-0.8-1.8-1.9-1.8-1 0-1.8 0.8-1.8 1.8 0 1.1 0.8 1.9 1.8 1.9 1.1 0 1.9-0.8 1.9-1.9zm4.2-0.4c0-0.7-0.6-1.3-1.3-1.3-0.8 0-1.4 0.6-1.4 1.3 0 0.8 0.6 1.4 1.4 1.4 0.7 0 1.3-0.6 1.3-1.4z"/>
				</g>
				<path id="&lt;Compound Path&gt;" class="s0" d="m-287.4 466.5c-0.3-0.1-0.8-0.3-1.4-0.2-0.5 0.1-0.8 0.3-0.8 1v0.9h2.2v1.7h-2.2v5.5h-2v-5.5h-1.3v-1.7h1.3v-0.9c0-1.7 0.9-2.8 2.6-2.8 0.6 0 1.2 0.1 1.6 0.3z"/>
				<path id="&lt;Compound Path&gt;" class="s0" d="m-282.7 469.9q-0.3-0.1-0.5-0.1c-0.9 0-1.5 0.6-1.5 1.6v4h-2v-7.2h1.9v0.8c0.5-0.7 1.1-1 2-1 0.4 0 0.9 0.1 1.1 0.3z"/>
				<path id="&lt;Compound Path&gt;" fill-rule="evenodd" class="s0" d="m-275 471.8c0 0.2 0 0.4-0.1 0.6h-5.1c0.3 1 1 1.5 1.9 1.5 0.6 0 1.3-0.3 1.8-0.7l1.1 1.3c-0.8 0.7-1.8 1-3 1-2.2 0-3.7-1.5-3.7-3.7 0-2.3 1.4-3.8 3.6-3.8 2 0 3.5 1.5 3.5 3.8zm-5.1-0.7h3.1c-0.2-0.9-0.7-1.4-1.5-1.4-0.9 0-1.5 0.5-1.6 1.4z"/>
				<path id="&lt;Compound Path&gt;" fill-rule="evenodd" class="s0" d="m-267.4 471.8c0 0.2 0 0.4 0 0.6h-5.1c0.2 1 0.9 1.5 1.8 1.5 0.7 0 1.3-0.3 1.9-0.7l1.1 1.3c-0.8 0.7-1.9 1-3.1 1-2.2 0-3.7-1.5-3.7-3.7 0-2.3 1.5-3.8 3.6-3.8 2.1 0 3.5 1.5 3.5 3.8zm-5.1-0.7h3.2c-0.2-0.9-0.8-1.4-1.6-1.4-0.9 0-1.4 0.5-1.6 1.4z"/>
				<path id="&lt;Compound Path&gt;" fill-rule="evenodd" class="s0" d="m-259 471.8c0 2.1-1.5 3.7-3.5 3.7-1 0-1.7-0.3-2.1-0.9v3.7h-1.9v-10.1h1.8v0.8c0.5-0.6 1.2-1 2.2-1 2 0 3.5 1.6 3.5 3.8zm-5.7 0c0 1.1 0.7 1.9 1.8 1.9 1.2 0 1.9-0.8 1.9-1.9 0-1.1-0.7-2-1.9-2-1.1 0-1.8 0.8-1.8 2z"/>
				<path id="&lt;Compound Path&gt;" class="s0" d="m-255.9 465.8c0 0.7-0.6 1.3-1.3 1.3-0.7 0-1.2-0.6-1.2-1.3 0-0.7 0.5-1.2 1.2-1.2 0.7 0 1.3 0.5 1.3 1.2zm-0.3 9.6h-1.9v-7.2h1.9z"/>
				<path id="&lt;Compound Path&gt;" class="s0" d="m-253 470.7l2.7-2.5h2.4l-3.5 3.4 3.5 3.8h-2.4l-2.7-2.9v2.9h-1.9v-10.7h1.9z"/>
			</g>
			<g id="&lt;Group&gt;">
				<path id="&lt;Compound Path&gt;" fill-rule="evenodd" class="s0" d="m-384.6 475.3v-1.1c-0.5 0.8-1.4 1.3-2.4 1.3-1.8 0-3.1-1.4-3.1-3.7 0-2.3 1.3-3.8 3.1-3.8 1 0 1.8 0.5 2.4 1.3v-3.8h1.1v9.8zm0-1.9v-3.2c-0.4-0.7-1.2-1.2-2.1-1.2-1.4 0-2.3 1.2-2.3 2.8 0 1.5 0.9 2.7 2.3 2.7 0.9 0 1.7-0.5 2.1-1.1z"/>
				<path id="&lt;Compound Path&gt;" fill-rule="evenodd" class="s0" d="m-382.1 471.7c0-2 1.5-3.7 3.5-3.7 2.2 0 3.4 1.7 3.4 3.8v0.3h-5.7c0.1 1.3 1 2.5 2.5 2.5 0.8 0 1.7-0.4 2.2-0.9l0.5 0.7c-0.7 0.7-1.6 1.1-2.8 1.1-2.1 0-3.6-1.5-3.6-3.8zm3.5-2.8c-1.5 0-2.3 1.3-2.3 2.4h4.6c0-1-0.7-2.4-2.3-2.4z"/>
				<path id="&lt;Compound Path&gt;" class="s0" d="m-374.4 474.4l0.6-0.8c0.4 0.5 1.3 1 2.3 1 1.1 0 1.7-0.5 1.7-1.2 0-1.8-4.4-0.7-4.4-3.3 0-1.1 0.9-2.1 2.6-2.1 1.2 0 2.1 0.5 2.7 1.1l-0.6 0.7c-0.4-0.5-1.2-0.9-2.1-0.9-0.9 0-1.5 0.5-1.5 1.1 0 1.6 4.3 0.6 4.3 3.3 0 1.2-0.9 2.2-2.7 2.2-1.2 0-2.2-0.4-2.9-1.1z"/>
				<path id="&lt;Compound Path&gt;" class="s0" d="m-367.5 466.5c0-0.4 0.3-0.8 0.7-0.8 0.4 0 0.8 0.4 0.8 0.8 0 0.4-0.4 0.7-0.8 0.7-0.4 0-0.7-0.3-0.7-0.7zm0.2 8.8v-7.1h1.1v7.1z"/>
				<path id="&lt;Compound Path&gt;" fill-rule="evenodd" class="s0" d="m-364.4 477.1l0.5-0.8c0.6 0.7 1.3 1 2.3 1 1.2 0 2.3-0.6 2.3-2.2v-1c-0.5 0.7-1.4 1.3-2.4 1.3-1.8 0-3.1-1.4-3.1-3.7 0-2.3 1.3-3.7 3.1-3.7 1 0 1.8 0.5 2.4 1.3v-1.1h1.1v6.9c0 2.3-1.6 3.1-3.4 3.1-1.2 0-2-0.3-2.8-1.1zm5.1-3.8v-3.1c-0.4-0.7-1.2-1.2-2.1-1.2-1.4 0-2.3 1.1-2.3 2.7 0 1.6 0.9 2.7 2.3 2.7 0.9 0 1.7-0.5 2.1-1.1z"/>
				<path id="&lt;Compound Path&gt;" class="s0" d="m-351.6 475.3v-4.6c0-1.3-0.6-1.7-1.6-1.7-0.8 0-1.7 0.5-2.1 1.1v5.2h-1.1v-7.1h1.1v1c0.5-0.5 1.5-1.2 2.6-1.2 1.4 0 2.2 0.8 2.2 2.3v5z"/>
				<path id="&lt;Compound Path&gt;" fill-rule="evenodd" class="s0" d="m-349.1 471.7c0-2 1.5-3.7 3.5-3.7 2.2 0 3.4 1.7 3.4 3.8v0.3h-5.7c0.1 1.3 1 2.5 2.5 2.5 0.8 0 1.7-0.4 2.2-0.9l0.5 0.7c-0.7 0.7-1.6 1.1-2.8 1.1-2.1 0-3.6-1.5-3.6-3.8zm3.5-2.8c-1.5 0-2.3 1.3-2.3 2.4h4.6c0-1-0.7-2.4-2.3-2.4z"/>
				<path id="&lt;Compound Path&gt;" fill-rule="evenodd" class="s0" d="m-335.6 475.3v-1.1c-0.6 0.8-1.4 1.3-2.4 1.3-1.9 0-3.2-1.4-3.2-3.7 0-2.3 1.3-3.8 3.2-3.8 0.9 0 1.8 0.5 2.4 1.3v-3.8h1v9.8zm0-1.9v-3.2c-0.3-0.7-1.2-1.2-2.1-1.2-1.4 0-2.2 1.2-2.2 2.8 0 1.5 0.8 2.7 2.2 2.7 0.9 0 1.8-0.5 2.1-1.1z"/>
				<path id="&lt;Compound Path&gt;" fill-rule="evenodd" class="s0" d="m-329.3 475.3v-9.8h1.1v3.8c0.6-0.8 1.4-1.3 2.4-1.3 1.8 0 3.1 1.5 3.1 3.8 0 2.3-1.3 3.7-3.1 3.7-1 0-1.9-0.5-2.4-1.3v1.1zm3.2-0.8c1.4 0 2.3-1.2 2.3-2.7 0-1.6-0.9-2.8-2.3-2.8-0.9 0-1.7 0.5-2.1 1.2v3.2c0.4 0.6 1.2 1.1 2.1 1.1z"/>
				<path id="&lt;Compound Path&gt;" class="s0" d="m-321.5 477.1c0.2 0 0.5 0.1 0.6 0.1 0.5 0 0.8-0.2 1.1-0.8l0.5-1-3-7.2h1.2l2.3 5.8 2.4-5.8h1.2l-3.6 8.5c-0.4 1-1.1 1.4-2 1.5-0.3 0-0.6-0.1-0.8-0.1z"/>
			</g>
		</g>
	</g>
</svg>