<svg version="1.2" xmlns="http://www.w3.org/2000/svg" viewBox="0 0 339 352" width="339" height="352">
	<title>CodeCraft Logo-svg</title>
	<defs>
		<linearGradient id="g1" x2="1" gradientUnits="userSpaceOnUse" gradientTransform="matrix(-77.432,-134.117,94.774,-54.717,235.514,238.294)">
			<stop offset="0" stop-color="#1a699d"/>
			<stop offset=".345" stop-color="#2eabc5"/>
			<stop offset=".43" stop-color="#33bbcf"/>
			<stop offset="1" stop-color="#9dedf0"/>
		</linearGradient>
		<linearGradient id="g2" x2="1" gradientUnits="userSpaceOnUse" gradientTransform="matrix(-76.023,121.662,-86.229,-53.882,309.006,181.891)">
			<stop offset="0" stop-color="#1a699d"/>
			<stop offset=".345" stop-color="#2eaac5"/>
			<stop offset=".432" stop-color="#33bbcf"/>
			<stop offset="1" stop-color="#9dedf0"/>
		</linearGradient>
		<linearGradient id="g3" x2="1" gradientUnits="userSpaceOnUse" gradientTransform="matrix(0,-19.101,28.499,0,152.703,278.546)">
			<stop offset="0" stop-color="#68c9f3"/>
			<stop offset="1" stop-color="#9dedf0"/>
		</linearGradient>
		<linearGradient id="g4" x2="1" gradientUnits="userSpaceOnUse" gradientTransform="matrix(0,-14.822,20.309,0,161.808,255.763)">
			<stop offset="0" stop-color="#68c9f3"/>
			<stop offset="1" stop-color="#9dedf0"/>
		</linearGradient>
		<linearGradient id="g5" x2="1" gradientUnits="userSpaceOnUse" gradientTransform="matrix(0,-12.457,15.86,0,169.626,235.458)">
			<stop offset="0" stop-color="#68c9f3"/>
			<stop offset="1" stop-color="#9dedf0"/>
		</linearGradient>
		<linearGradient id="g6" x2="1" gradientUnits="userSpaceOnUse" gradientTransform="matrix(77.432,134.117,-94.797,54.731,102.641,53.392)">
			<stop offset="0" stop-color="#1a699d"/>
			<stop offset=".345" stop-color="#2eabc5"/>
			<stop offset=".43" stop-color="#33bbcf"/>
			<stop offset="1" stop-color="#9dedf0"/>
		</linearGradient>
		<linearGradient id="g7" x2="1" gradientUnits="userSpaceOnUse" gradientTransform="matrix(94.941,-117.242,68.499,55.469,21.079,101.639)">
			<stop offset="0" stop-color="#1a699d"/>
			<stop offset=".345" stop-color="#2eabc5"/>
			<stop offset=".43" stop-color="#33bbcf"/>
			<stop offset="1" stop-color="#9dedf0"/>
		</linearGradient>
		<linearGradient id="g8" x2="1" gradientUnits="userSpaceOnUse" gradientTransform="matrix(0,19.101,-28.499,0,185.452,13.139)">
			<stop offset="0" stop-color="#68c9f3"/>
			<stop offset="1" stop-color="#9dedf0"/>
		</linearGradient>
		<linearGradient id="g9" x2="1" gradientUnits="userSpaceOnUse" gradientTransform="matrix(0,14.823,-20.268,0,176.347,35.922)">
			<stop offset="0" stop-color="#68c9f3"/>
			<stop offset="1" stop-color="#9dedf0"/>
		</linearGradient>
		<linearGradient id="g10" x2="1" gradientUnits="userSpaceOnUse" gradientTransform="matrix(0,12.457,-15.86,0,168.53,56.227)">
			<stop offset="0" stop-color="#68c9f3"/>
			<stop offset="1" stop-color="#9dedf0"/>
		</linearGradient>
	</defs>
	<style>
		.s0 { fill: #0d1828 } 
		.s1 { fill: url(#g1) } 
		.s2 { fill: url(#g2) } 
		.s3 { fill: url(#g3) } 
		.s4 { fill: url(#g4) } 
		.s5 { fill: url(#g5) } 
		.s6 { fill: url(#g6) } 
		.s7 { fill: url(#g7) } 
		.s8 { fill: url(#g8) } 
		.s9 { fill: url(#g9) } 
		.s10 { fill: url(#g10) } 
		.s11 { fill: #ffffff } 
		.s12 { fill: #68c9f3 } 
	</style>
	<g id="BACKGROUND">
		<path id="&lt;Path&gt;" class="s0" d="m-351 804h-1000v-1000h1000z"/>
	</g>
	<g id="OBJECTS">
		<g id="&lt;Group&gt;">
			<g id="&lt;Group&gt;">
				<g id="&lt;Group&gt;">
					<path id="&lt;Path&gt;" class="s1" d="m313.1 177.4c0 5.8-3.2 11-8.3 13.7l-4.6 2.4-126.9-57.5q-4.3-2.2-6.1-5.3-1.9-3.1-1.9-6.8l-0.2-23.8 139.7 63.7c2.6 1.3 4.6 3.3 6.1 5.7 1.4 2.3 2.2 5.1 2.2 7.9z"/>
					<path id="&lt;Path&gt;" class="s2" d="m300.2 193.5l-128.5 67.2c-2.6 1.3-5.6 0.2-6.3-2.7-0.5-2 0.5-3.9 2.2-4.8l61.6-32.1c1-0.5 1.4-1.8 0.9-2.8-0.6-1-1.8-1.4-2.8-0.9l-49.7 26c-2.8 1.5-6.2-0.6-6.2-3.8v-0.8c0-1.5 0.8-3 2.3-3.7l46.3-24.3c1-0.5 1.4-1.8 0.8-2.7-0.5-1.1-1.7-1.5-2.8-0.9l-33.3 17.7c-2.9 1.5-6.3-0.6-6.3-3.9v-1.9c0.1-1.6 1-3 2.4-3.7 14.3-7 78.5-38.2 81.7-39z"/>
					<path id="&lt;Path&gt;" class="s3" d="m154.4 259.9l-20.1 10.6c-1.4 0.8-2.2 2.2-2.2 3.8 0 3.2 3.3 5.2 6.2 3.7l20-10.6c1.4-0.7 2.2-2.1 2.3-3.7 0-3.2-3.4-5.3-6.2-3.8z"/>
					<path id="&lt;Path&gt;" class="s4" d="m160.4 241.4l-11.9 6.4c-1.4 0.7-2.3 2.1-2.3 3.7 0 3.2 3.4 5.3 6.2 3.8l12-6.4c1.3-0.7 2.2-2.1 2.2-3.7 0-3.2-3.4-5.3-6.2-3.8z"/>
					<path id="&lt;Path&gt;" class="s5" d="m166.5 223.5l-7.4 3.9c-1.4 0.8-2.3 2.2-2.3 3.8 0 3.2 3.4 5.3 6.2 3.8l7.4-4c1.4-0.8 2.2-2.2 2.3-3.7 0-3.2-3.4-5.3-6.2-3.8z"/>
				</g>
				<g id="&lt;Group&gt;">
					<path id="&lt;Path&gt;" class="s6" d="m25.1 114.3c0-5.8 3.1-11 8.2-13.7l4.6-2.4 127 57.5q4.2 2.2 6.1 5.3 1.9 3.1 1.9 6.8l0.2 23.7-139.8-63.6c-2.5-1.3-4.6-3.3-6-5.7-1.4-2.3-2.2-5.1-2.2-7.9z"/>
					<path id="&lt;Path&gt;" class="s7" d="m37.9 98.2l128.5-67.2c2.7-1.4 5.7-0.2 6.4 2.7 0.4 1.9-0.5 3.9-2.2 4.7l-61.6 32.2c-1.1 0.5-1.4 1.8-0.9 2.8 0.5 1 1.8 1.4 2.8 0.9l49.7-26c2.8-1.5 6.2 0.6 6.2 3.8v0.7c0 1.6-0.9 3.1-2.3 3.8l-46.3 24.2c-1 0.6-1.4 1.8-0.9 2.8 0.5 1.1 1.8 1.4 2.8 0.9l33.4-17.7c2.9-1.5 6.3 0.6 6.2 3.9v1.8c0 1.6-0.9 3.1-2.4 3.8-14.2 7-78.4 38.2-81.7 39z"/>
					<path id="&lt;Path&gt;" class="s8" d="m183.8 31.7l20.1-10.5c1.3-0.8 2.2-2.2 2.2-3.8 0-3.2-3.4-5.3-6.2-3.8l-20.1 10.7c-1.3 0.7-2.2 2.1-2.2 3.7 0 3.2 3.4 5.2 6.2 3.7z"/>
					<path id="&lt;Path&gt;" class="s9" d="m177.8 50.3l11.9-6.4c1.4-0.7 2.2-2.1 2.2-3.7 0-3.2-3.4-5.3-6.2-3.8l-11.9 6.4c-1.4 0.7-2.2 2.1-2.2 3.7-0.1 3.2 3.3 5.2 6.2 3.8z"/>
					<path id="&lt;Path&gt;" class="s10" d="m171.7 68.2l7.4-4c1.4-0.7 2.3-2.1 2.3-3.7 0-3.2-3.4-5.3-6.2-3.8l-7.5 4c-1.3 0.8-2.2 2.2-2.2 3.7 0 3.2 3.4 5.3 6.2 3.8z"/>
				</g>
			</g>
			<g id="&lt;Group&gt;">
				<path id="CODE CRAFT" fill-rule="evenodd" class="s11" d="m38.1 292.5c9.5 0 16.7 5.4 19 14.1h-10.7c-1.7-3.5-4.7-5.2-8.4-5.2-6 0-10.1 4.5-10.1 11.5 0 7.1 4.1 11.6 10.1 11.6 3.7 0 6.7-1.8 8.4-5.2h10.7c-2.3 8.7-9.5 14-19 14-11.8 0-20.1-8.4-20.1-20.4 0-11.9 8.3-20.4 20.1-20.4zm39.5 41c-9.4 0-16.4-6.3-16.4-16.4 0-10.1 7.2-16.4 16.5-16.4 9.3 0 16.5 6.3 16.5 16.4 0 10.1-7.3 16.4-16.6 16.4zm0-8.5c3.4 0 6.7-2.5 6.7-7.9 0-5.4-3.2-7.9-6.6-7.9-3.6 0-6.6 2.5-6.6 7.9 0 5.4 2.9 7.9 6.5 7.9zm33.9-24.3c4.2 0 7.9 2 9.8 4.9v-14.8h9.7v42.2h-9.7v-4.6c-1.8 2.9-5.1 5.1-9.8 5.1-7.8 0-14-6.4-14-16.5 0-10 6.2-16.3 14-16.3zm2.8 8.5c-3.6 0-6.9 2.8-6.9 7.8 0 5.1 3.3 8 6.9 8 3.7 0 7-2.8 7-7.9 0-5.1-3.3-7.9-7-7.9zm37.9 24.3c-9.3 0-16-6.3-16-16.4 0-10.1 6.6-16.4 16-16.4 9.3 0 15.9 6.2 15.9 15.9 0 0.9-0.1 1.9-0.2 2.8h-22c0.3 4.2 2.9 6.1 6 6.1 2.7 0 4.3-1.3 5.1-3h10.3c-1.5 6.2-7.1 11-15.1 11zm-6.3-19.5h12.2c0-3.5-2.7-5.5-6-5.5-3.2 0-5.6 2-6.2 5.5z"/>
				<path id="CODE CRAFT" fill-rule="evenodd" class="s12" d="m191.7 292.5c9.5 0 16.7 5.4 19 14.1h-10.8c-1.6-3.5-4.6-5.2-8.3-5.2-6 0-10.1 4.5-10.1 11.5 0 7.1 4.1 11.6 10.1 11.6 3.7 0 6.7-1.8 8.3-5.2h10.8c-2.3 8.7-9.5 14-19 14-11.8 0-20.1-8.4-20.1-20.4 0-11.9 8.3-20.4 20.1-20.4zm34.7 40.5h-9.8v-31.8h9.8v5.3c2.2-3.4 5.7-5.6 10-5.6v10.3h-2.7c-4.6 0-7.3 1.6-7.3 7zm26.7-32.3c4.8 0 8.1 2.2 9.8 5v-4.5h9.8v31.8h-9.8v-4.5c-1.7 2.8-5.1 4.9-9.8 4.9-7.8 0-14-6.4-14-16.4 0-10 6.2-16.3 14-16.3zm2.9 8.5c-3.7 0-7 2.7-7 7.8 0 5.1 3.3 7.9 7 7.9 3.7 0 6.9-2.8 6.9-7.8 0-5.1-3.2-7.9-6.9-7.9zm24.7 0.1h-3.5v-8.1h3.5v-1c0-8.3 5.1-12.4 14.8-11.9v8.3c-3.7-0.2-5 0.9-5 4.3v0.3h5.2v8.1h-5.2v23.7h-9.8zm21.1-0.1h-3.9v-8.1h3.9v-7.7h9.8v7.7h6.3v8.1h-6.3v12.8c0 1.9 0.8 2.7 2.9 2.7h3.5v8.3h-5c-6.6 0-11.2-2.8-11.2-11.1z"/>
			</g>
		</g>
		<g id="&lt;Group&gt;">
			<g id="&lt;Group&gt;">
				<g id="&lt;Group&gt;">
				</g>
				<g id="&lt;Group&gt;">
				</g>
				<g id="&lt;Group&gt;">
				</g>
				<g id="&lt;Group&gt;">
					<g id="&lt;Group&gt;">
					</g>
				</g>
			</g>
			<g id="&lt;Group&gt;">
			</g>
		</g>
		<g id="&lt;Group&gt;">
			<g id="&lt;Group&gt;">
				<g id="&lt;Group&gt;">
					<g id="&lt;Group&gt;">
					</g>
				</g>
				<g id="&lt;Group&gt;">
					<g id="&lt;Group&gt;">
					</g>
				</g>
			</g>
			<g id="&lt;Group&gt;">
			</g>
		</g>
		<g id="&lt;Group&gt;">
			<g id="&lt;Group&gt;">
			</g>
			<g id="&lt;Group&gt;">
				<g id="&lt;Group&gt;">
					<g id="&lt;Group&gt;">
					</g>
					<g id="&lt;Group&gt;">
					</g>
				</g>
			</g>
		</g>
	</g>
</svg>